<svg id="Layer_1" data-name="Layer 1" xmlns="http://www.w3.org/2000/svg" viewBox="0 0 50 50"><defs><style>.cls-1{fill:#0083cc;}.cls-2{fill:#fff;}</style></defs><title>advanced-logo</title><circle class="cls-1" cx="25" cy="25" r="25"/><path class="cls-2" d="M12.47,14.91q3.95,4.21,7.7,8.59V22.44q-4,4.69-7.62,9.67c-.57.78.73,1.53,1.3.76Q17.36,28,21.23,23.5a.77.77,0,0,0,0-1.06q-3.75-4.39-7.7-8.59c-.66-.71-1.72.36-1.06,1.06Z"/><path class="cls-2" d="M20.48,15.89c1.41,1.57,6.92,6.22,6.72,8.23-.13,1.29-2,2.9-2.79,3.92l-3.5,4.43c-.59.75.46,1.82,1.06,1.06l7-8.86a.78.78,0,0,0,.12-.91c-2-3.3-5-6.07-7.55-8.93-.65-.72-1.7.34-1.06,1.06Z"/><path class="cls-2" d="M28.31,15.65c2.17,2,6.34,5.12,7,8,.33,1.35.17,1.39-.62,2.5q-1,1.38-2.07,2.68a40.24,40.24,0,0,1-3.76,3.83c-.72.65.35,1.71,1.06,1.06a41.77,41.77,0,0,0,7.68-9.32.73.73,0,0,0,0-.76,66.94,66.94,0,0,0-8.27-9.11c-.71-.65-1.78.41-1.06,1.06Z"/></svg>