<svg id="Layer_1" data-name="Layer 1" xmlns="http://www.w3.org/2000/svg" viewBox="0 0 50 50"><defs><style>.cls-1{fill:#f37c8d;}.cls-2{fill:#fff;}</style></defs><title>clock-logo</title><circle class="cls-1" cx="25" cy="25" r="25"/><path class="cls-2" d="M21.49,12C15.36,14.11,11,20.46,12.57,27a13.09,13.09,0,0,0,15.08,9.55c7.56-1.5,12.16-8.3,9.47-16-2.28-6.57-9-11.61-15.68-8.29-.87.43-.11,1.72.76,1.3,6.63-3.27,13.47,3.68,14,10.16.61,7-5,12-11.74,11.65-12.61-.67-14-18-2.6-21.93.91-.31.52-1.76-.4-1.45Z"/><path class="cls-2" d="M23.54,16.64q.2,4.28.63,8.54l.75-.75c-1.3.14-1.74.93-1.19,2.12a.75.75,0,0,0,.65.37c2.83.23,1.38-3.71-.43-2.42-1.58,1.13.55,3.35,1.87,1.56l-1.18.15c1.61,1.4,3.27,2.72,5,4,.78.56,1.53-.74.76-1.3-1.63-1.17-3.19-2.41-4.69-3.73a.77.77,0,0,0-1.18.15l.4.62c.37,0,.79-.31.75-.75q-.43-4.26-.63-8.54c0-1-1.54-1-1.5,0Z"/></svg>