<svg id="Layer_1" data-name="Layer 1" xmlns="http://www.w3.org/2000/svg" viewBox="0 0 50 50"><defs><style>.cls-1{fill:#873299;}.cls-2{fill:#fff;}</style></defs><title>color-logo</title><circle class="cls-1" cx="25" cy="25" r="25"/><path class="cls-2" d="M23.94,11.55c-4.31,0-7,5.62-6.31,9.41a8,8,0,0,0,8.78,6.39,7.87,7.87,0,0,0,6.71-9c-.59-3.9-4.67-7.86-8.77-7.18-1,.16-.55,1.6.4,1.45,3.48-.58,6.77,3.43,7,6.56a6.35,6.35,0,0,1-4.89,6.55,6.41,6.41,0,0,1-7.52-4.29c-1-2.91.86-8.42,4.64-8.4a.75.75,0,0,0,0-1.5Z"/><path class="cls-2" d="M29.79,20.26c-4.64.9-7,4.79-6.9,9.35s4.05,7.56,8.62,6.89a8,8,0,0,0,6.73-8c-.12-4.32-3.83-7.35-7.73-8.39a.75.75,0,0,0-.4,1.45c2.73.73,5.37,2.43,6.32,5.24a6.41,6.41,0,0,1-4.26,8c-4.37,1.29-8-1.7-7.76-6.16a7,7,0,0,1,5.78-7c.95-.18.55-1.63-.4-1.45Z"/><path class="cls-2" d="M20.09,20c-4.37,1.17-8.91,4.48-8.28,9.58.53,4.25,4.95,6.91,9,6.44,9.68-1.12,9.8-15.49-.18-16.06-1-.06-1,1.44,0,1.5C29.16,22,28.24,34.36,20,34.6c-3.34.1-6.81-2.45-6.72-6,.1-4,3.83-6.21,7.24-7.12a.75.75,0,0,0-.4-1.45Z"/></svg>