<svg id="Layer_1" data-name="Layer 1" xmlns="http://www.w3.org/2000/svg" viewBox="0 0 50 50"><defs><style>.cls-1{fill:#ff9903;}.cls-2{fill:#fff;}</style></defs><title>emoji-logo</title><circle class="cls-1" cx="25" cy="25" r="25"/><path class="cls-2" d="M21.38,12.26c-6.66,2.1-11.41,8.69-9.81,15.8,1.7,7.56,9.2,11.72,16.57,10.29s12.27-8,10.27-15.86c-2-8-9.22-11.6-17.05-10.48-1,.14-.55,1.58.4,1.45,6.54-.93,12.94,2.21,15,8.75a13.75,13.75,0,0,1-.64,8.66c-1.45,3.86-4.51,5.33-8.41,6-15.26,2.8-20.6-18.57-6-23.19.92-.29.53-1.74-.4-1.45Z"/><path class="cls-2" d="M18.59,23.43c.19-.47.49-1.22,1-1.4s1.19.64,1.48,1.11a.75.75,0,0,0,1.3-.76c-.62-1.05-1.64-2.13-3-1.85S17.57,22,17.14,23c-.37.89,1.08,1.28,1.45.4Z"/><path class="cls-2" d="M28.22,23.15a1.13,1.13,0,0,1,2.19-.26c.41.87,1.71.11,1.3-.76a2.62,2.62,0,0,0-4.93.62c-.19.94,1.26,1.35,1.45.4Z"/><path class="cls-2" d="M16.28,29.53c3.93,5.83,13.08,5.07,17.08-.33.57-.78-.73-1.53-1.3-.76-3.3,4.46-11.23,5.16-14.49.33-.54-.8-1.84,0-1.3.76Z"/></svg>