<svg id="Layer_1" data-name="Layer 1" xmlns="http://www.w3.org/2000/svg" viewBox="0 0 50 50"><defs><style>.cls-1{fill:#ff9903;}.cls-2{fill:#fff;}</style></defs><title>functions-logo</title><circle class="cls-1" cx="25" cy="25" r="25"/><path class="cls-2" d="M31.18,15.22c1.59-1.93,3,.64,3.27,2.14s-.64,2.66.48,4.2c1,1.3,3,1.08,1.78,3.7-.4.84-.51.28-.89.78a18.63,18.63,0,0,0-2,3.56.77.77,0,0,0,.12.91c1,1-1.45,3.46-1.87,4l1.18-.15-1.5-1.22c-.74-.6-1.81.45-1.06,1.06l1.5,1.22a.77.77,0,0,0,1.18-.15l2.89-3.86a.75.75,0,0,0-.12-.91c-1.6-1.49.65-3.17,2-3.37a.75.75,0,0,0,.55-.72l-.51-5.1a.77.77,0,0,0-.75-.75l-1-3.13a.76.76,0,0,0,0-1.06,35.05,35.05,0,0,1-3.76-4.12.75.75,0,0,0-1.06,0l-1.57,1.91c-.61.74.45,1.81,1.06,1.06Z"/><path class="cls-2" d="M30.45,13.68c-1.88-.46-1.49-2.21-2.65-3.1s-4.26-.09-5.53-.06a.76.76,0,0,0-.72.95c.09.65-1.45,1.72-2.09,1.71s-.86-.5-1.31-.54a2.3,2.3,0,0,0-1.84.72c-2.68,2-3.87,2.85-1.74,5.42.62.74,1.67-.32,1.06-1.06-1.11-1.33,1.6-4,2.95-2.82a.76.76,0,0,0,.91.12,9,9,0,0,1,3.06-1.5.77.77,0,0,0,.55-.72,6.7,6.7,0,0,0-.1-1.73l-.72.95c1.41,0,3.59-.58,4.7.57.18.19.07.75.3,1A5.25,5.25,0,0,0,30,15.12c.94.23,1.34-1.22.4-1.45Z"/><path class="cls-2" d="M14.12,17.82A6.29,6.29,0,0,0,13,21.42l.75-.75a4.85,4.85,0,0,0-1.93.05.75.75,0,0,0-.55.72v5.31a.76.76,0,0,0,.75.75c2.52.06.82,3.8,1.88,5.47,1.74,2.74,2.94,3.52,5.19,1.62.74-.63-.33-1.68-1.06-1.06-1.19,1-2.6-1.18-2.71-2-.16-1.24.12-.68.07-1.27a15,15,0,0,0-.92-3.72.77.77,0,0,0-.72-.55A8.2,8.2,0,0,1,12,26l.75.75c0-.86-.69-4.77,1-4.58a.76.76,0,0,0,.75-.75,4.07,4.07,0,0,1,.93-2.84c.54-.8-.76-1.56-1.3-.76Z"/><path class="cls-2" d="M30.19,33.07a4.1,4.1,0,0,0-2.28,1.38c-.32.48-.13,1.19-.39,1.59-.43.66-1.86.34-2.52.34a4.91,4.91,0,0,1-1.33,0c-.08-.1-.1-.72-.21-.92-.62-1.17-2.72-1.74-3.81-2.29-.86-.44-1.62.86-.76,1.3.68.35,2.35.83,2.8,1.42s.28.89.4,1.42a.73.73,0,0,0,.52.52,13.47,13.47,0,0,0,2.38.06,10.05,10.05,0,0,0,3.1,0,1.22,1.22,0,0,0,.76-.66,3.54,3.54,0,0,0,.1-.38c.47-1.13.22-1.81,1.62-2.28.91-.31.52-1.75-.4-1.45Z"/><path class="cls-2" d="M32.09,22.1c-1.78-8.21-16.31-5.63-14.44,3.22a7.57,7.57,0,0,0,7.94,5.73c4.64-.29,6.12-4,6.47-8.11.08-1-1.42-1-1.5,0-.29,3.33-1.37,6.54-5.31,6.63a6.07,6.07,0,0,1-5.85-3.69c-3-7.47,9.76-10.19,11.24-3.39.2.94,1.65.54,1.45-.4Z"/></svg>