<svg id="Layer_1" data-name="Layer 1" xmlns="http://www.w3.org/2000/svg" viewBox="0 0 50 50"><defs><style>.cls-1{fill:#0bd7e0;}.cls-2{fill:#fff;}</style></defs><title>gyroscope-logo</title><circle class="cls-1" cx="25" cy="25" r="25"/><path class="cls-2" d="M23.58,12.77c-4.88,1.95-4.69,8.44-4.33,12.82.31,3.83,1.43,9.92,6.61,9.34s5-7.76,4.76-11.56c-.26-4.15-1.44-11.11-7-10.6-1,.09-1,1.59,0,1.5,4.83-.45,5.4,6.92,5.51,9.86a15.19,15.19,0,0,1-.26,4.48c-1,3.44-4.57,8-7.41,1.44-1.64-3.81-2-14,2.49-15.84.89-.35.5-1.8-.4-1.45Z"/><path class="cls-2" d="M31.33,18.32c-4.38-1.6-11.32-2.11-14.62,2-2.68,3.34-.69,8.18,3,9.76,3.93,1.7,10.45.81,13.26-2.6,2.36-2.87,2.19-7.54-1.52-9.1-.89-.37-1.28,1.08-.4,1.45,4.71,2,.6,7.79-2.53,8.83s-7.5,1.17-9.87-1.19c-3.49-3.49-.74-7.37,3.25-8.4a15.07,15.07,0,0,1,9.06.7c.91.33,1.3-1.12.4-1.45Z"/><path class="cls-2" d="M26.31,21.64c-1.16-1.25-3.61-1.87-4.56-.07s.32,4.08,1.74,5.18c1.17.9,3.26,1.7,4.19.1,1-1.78-.08-4.1-1.35-5.43-.67-.7-1.73.36-1.06,1.06a4.19,4.19,0,0,1,1.29,2.76c0,1.3-1.06,1.06-1.9.52a3.8,3.8,0,0,1-1.58-2.08C22.85,22.9,23,21.92,24,22a2,2,0,0,1,1.28.73c.66.71,1.72-.35,1.06-1.06Z"/><path class="cls-2" d="M28.38,16.55Q23.95,24,18.8,31a.73.73,0,0,0,0,.76c1.66,2.42,3.53-1.5,4.32-2.66l4.55-6.72c1.09-1.61,2.59-3.15,2.84-5.12a.73.73,0,0,0-.37-.65l-.43-.25a.75.75,0,0,0-.76,1.3c.07,0-4.45,6.72-4.86,7.33l-2,2.88c-.31.45-2.61,3.13-1.42,3,.53,0,2.17-3,2.5-3.52q.92-1.34,1.82-2.69c1.61-2.42,3.14-4.88,4.62-7.38a.75.75,0,0,0-1.3-.76Z"/><path class="cls-2" d="M19.62,31.4l.36.21a.75.75,0,0,0,.76-1.3l-.36-.21a.75.75,0,0,0-.76,1.3Z"/><path class="cls-2" d="M20.89,29.23a1,1,0,0,0,1.68-1.06l-1.1.85a.93.93,0,0,0,1.09,0,.91.91,0,0,0,.31-.37.75.75,0,0,0,.1-.38q.05-.31-.13.12l-.53.22a.92.92,0,0,0,.86-.23c.23-.24.17-.49.28-.77s.14-.18.28-.29a1,1,0,0,0,.43-.85.75.75,0,0,0-1.5,0v.11l.1-.38q.21-.17,0,0a1.94,1.94,0,0,0-.25.18,1.61,1.61,0,0,0-.29.33,1.93,1.93,0,0,0-.19.41,1.27,1.27,0,0,0-.06.33q-.08.38.22-.17l.58-.08a1,1,0,0,0-1,.18,1.27,1.27,0,0,0-.28.91l.1-.38.24-.16h.41c-.51-.39-1.31.26-1.1.85l.18-.38.38-.1h-.1l.38.1h0c-.62-.74-1.68.32-1.06,1.06Z"/><path class="cls-2" d="M23.4,25.09a1.08,1.08,0,0,0,.3.74c.49.58,1.46,0,1.25-.73l-.08-.26-.92.92c.82.17,1.3-.47,1.2-1.24l-.72.95a1.08,1.08,0,0,0,1.05-1.15l-1.47.2a.84.84,0,0,0,1.38.44,5.2,5.2,0,0,0,.91-1.66c.42-.86-.87-1.62-1.3-.76l-.37.76a2.09,2.09,0,0,1-.3.6l.53-.22h-.06l.53.22.13.22c-.12-.84-1.51-.64-1.47.2l.17-.26.38-.1h-.11a.77.77,0,0,0-.72.95l0,.11v-.4l.15-.22.58-.08-.09,0a.76.76,0,0,0-.92.92l.08.26,1.25-.73-.07-.09.22.53v-.12c0-1-1.54-1-1.5,0Z"/><path class="cls-2" d="M25.48,23.16l.22.1a.77.77,0,0,0,1-.27.76.76,0,0,0-.27-1l-.22-.1a.77.77,0,0,0-1,.27.76.76,0,0,0,.27,1Z"/><path class="cls-2" d="M26,21.77a.84.84,0,0,0,1,.44c.9-.33.51-1.78-.4-1.45l-.08,0,.58.08.15.14a.76.76,0,0,0-1-.27.77.77,0,0,0-.27,1Z"/><path class="cls-2" d="M26.7,21.5l.43.09a.76.76,0,0,0,.95-.72.42.42,0,0,1,.1-.26l-.85.34.15,0a.76.76,0,0,0,.92-.52,3.6,3.6,0,0,1,.52-1.07c.52-.82-.78-1.57-1.3-.76a4.88,4.88,0,0,0-.67,1.43l.92-.52-.15,0a.77.77,0,0,0-.85.34,2.3,2.3,0,0,0-.3,1l.95-.72-.43-.09c-.94-.19-1.35,1.26-.4,1.45Z"/><path class="cls-2" d="M30.07,13.38c-1.7.83-2,3.9.19,4.33s3-3.06,1.41-4.18a1.92,1.92,0,0,0-2.48.46,2.34,2.34,0,0,0-.32,2.71,1.6,1.6,0,0,0,2.41.43,2.67,2.67,0,0,0,.58-2.61,1.26,1.26,0,0,0-2.34.09,1.41,1.41,0,0,0,1.56,2,.77.77,0,0,0,.55-.72,1,1,0,0,0-1-1.07.76.76,0,0,0-.72.95.85.85,0,0,0,1.12.67.74.74,0,0,0,.52-.52.9.9,0,0,0-.87-1.16c-1,0-1,1.46,0,1.5h.1l-.65-.37.07.09-.08-.58,0,.11.52-.52-.09,0,.58.08L31,15.07l.34.45,0-.11-.72.95-.5-.43.55-.72q.18.18.2,0l-.42-.15s0,.35,0,.44-.05.64-.29.45c-.41-.34.28-1.47.67-1.13s.14,1.64-.4,1.37c-.25-.13-.28-.55-.23-.78a1,1,0,0,1,.62-.74c.87-.42.11-1.72-.76-1.3Z"/><path class="cls-2" d="M19.82,30.65a1.53,1.53,0,0,0-2.2.31,2.29,2.29,0,0,0-.34,2.44,2,2,0,0,0,1.83,1.41,1.79,1.79,0,0,0,1.73-1.49,2.27,2.27,0,0,0-.71-2.45,1.55,1.55,0,0,0-2.12.48,1.87,1.87,0,0,0,.12,2.3,1.24,1.24,0,0,0,2.06-.46c.28-.79-.11-2.24-1.22-1.85a.94.94,0,0,0-.54,1.3,1,1,0,0,0,1.26.43.76.76,0,0,0,.52-.92l-.08-.2c-.35-.89-1.8-.5-1.45.4l.08.2.52-.92h0l.45.34.05.17-.22.53q-.84-.57-.83-.09,0,.16.2,0c.38-.08.09,0,.18-.21s.08-.31.16-.28.12,1-.07,1.15-.53-.26-.6-.48a1.05,1.05,0,0,1,0-.68c.05-.1.16-.14.23-.23l.09-.06q.26-.09-.17-.11c.69.67,1.76-.39,1.06-1.06Z"/></svg>