<svg id="Layer_1" data-name="Layer 1" xmlns="http://www.w3.org/2000/svg" viewBox="0 0 50 50"><defs><style>.cls-1{fill:#ffce00;}.cls-2{fill:#fff;}</style></defs><title>hub-logo</title><circle class="cls-1" cx="25" cy="25" r="25"/><path class="cls-2" d="M12.88,35.72c9,.78,17.86,1.34,26.62-1.11a1.52,1.52,0,0,0,1-1.85,43.92,43.92,0,0,0-7.19-14.55c-1.64-2.16-4.84-7.45-8.1-6.64-1.87.47-1.08,3.36.8,2.89,1.29-.32,6.7,8.1,7.07,8.69a41.29,41.29,0,0,1,4.53,10.4l1-1.85c-8.5,2.38-17.14,1.76-25.82,1-1.92-.17-1.91,2.83,0,3Z"/><path class="cls-2" d="M14.16,33.73c-.89-2.63,2.77-7.74,4.1-10,2.08-3.49,4.49-7.14,7.9-9.45,1.59-1.08.09-3.68-1.51-2.59-4,2.72-6.93,7-9.33,11.12-1.66,2.87-5.2,8.26-4,11.69.61,1.82,3.51,1,2.89-.8Z"/></svg>