<svg id="Layer_1" data-name="Layer 1" xmlns="http://www.w3.org/2000/svg" viewBox="0 0 50 50"><defs><style>.cls-1{fill:#873299;}.cls-2{fill:#fff;}</style></defs><title>led-logo</title><circle class="cls-1" cx="25" cy="25" r="25"/><path class="cls-2" d="M35.27,20A47.89,47.89,0,0,0,29.63,22l1.1.85c.58-2,2.08-3.52,3.09-5.3l-1.37-.18a18.59,18.59,0,0,1,.26,6.29L34,23.17a13.92,13.92,0,0,1-3.81-4.89l-.65,1.13a17.06,17.06,0,0,1,5.53,1.73c.86.44,1.62-.86.76-1.3a19.22,19.22,0,0,0-6.29-1.93c-.62-.08-.86.68-.65,1.13a14.91,14.91,0,0,0,4,5.2.76.76,0,0,0,1.28-.53A19.77,19.77,0,0,0,33.91,17a.76.76,0,0,0-1.37-.18c-1.09,1.91-2.62,3.52-3.24,5.66a.76.76,0,0,0,1.1.85,44.79,44.79,0,0,1,5.27-1.92.75.75,0,0,0-.4-1.45Z"/><path class="cls-2" d="M22.64,16.23a15.87,15.87,0,0,1-1.77,4.35L22,20.43c-1-.91-1.32-2.82-1.49-4.1L19.43,17A14,14,0,0,1,23.66,20l.53-1.28-2.36,0a12.91,12.91,0,0,1-2.36-.09l.45.34-.11-.14v.76c.29-.58,1.24-.92,1.78-1.23l2-1.18a.75.75,0,0,0-.76-1.3c-.91.52-1.82,1-2.73,1.57a3.86,3.86,0,0,0-1.63,1.38.75.75,0,0,0,0,.76c.53.71,1.32.58,2.14.6,1.18,0,2.36.05,3.54.06A.76.76,0,0,0,24.72,19a15.05,15.05,0,0,0-4.53-3.29c-.44-.25-1.21.05-1.13.65.23,1.7.6,3.94,1.93,5.16a.76.76,0,0,0,1.18-.15,17.23,17.23,0,0,0,1.92-4.71c.29-.92-1.16-1.32-1.45-.4Z"/><path class="cls-2" d="M18.55,22.64a15.8,15.8,0,0,1-2,4.73l1.37.18a24.24,24.24,0,0,1-1.46-5l-1.1.85a33.06,33.06,0,0,1,4.41,3.36l.73-1.25c-1.79-.28-3.6.18-5.38-.12l.45,1.1a9.4,9.4,0,0,1,2-1.66L19.6,23.3c.76-.57,0-1.88-.76-1.3-1.53,1.15-3.42,2.21-4.58,3.75a.75.75,0,0,0,.45,1.1c1.8.3,3.59-.16,5.38.12.67.1,1.34-.7.73-1.25a35.41,35.41,0,0,0-4.71-3.6c-.6-.38-1.21.25-1.1.85a24.24,24.24,0,0,0,1.46,5,.76.76,0,0,0,1.37.18A17.07,17.07,0,0,0,20,23c.23-.94-1.22-1.34-1.45-.4Z"/><path class="cls-2" d="M10.67,33.82A38.68,38.68,0,0,1,17.53,32c.95-.16.55-1.61-.4-1.45a38.68,38.68,0,0,0-6.86,1.85c-.9.33-.51,1.78.4,1.45Z"/><path class="cls-2" d="M16.84,31.27c.09,1.54-.1,4.71,1.31,5.77,1.66,1.25,5.72,0,7.63-.09,2.09-.15,6.6.45,8.32-1.12,1.5-1.37.78-4.26.71-6,0-1-1.54-1-1.5,0,.1,2.55.39,4.17-2.63,5.28-1.48.54-4,.28-5.51.39s-3.41.57-4.89.34c-2.12-.33-1.82-2.65-1.93-4.56-.06-1-1.56-1-1.5,0Z"/><path class="cls-2" d="M34.46,30.48c.59-.32,2.25.13,2.93.2l3.48.35c1,.1,1-1.4,0-1.5l-4.22-.43c-1-.1-2.05-.41-2.94.08s-.09,1.76.76,1.3Z"/><path class="cls-2" d="M21.42,11.76c-4.39,1.07-9.27,2.4-11.85,6.46-2.9,4.58-1.74,10.07,0,14.83.33.9,1.78.51,1.45-.4-1.64-4.47-3-9.85.15-14,2.53-3.4,6.72-4.45,10.65-5.41.94-.23.54-1.68-.4-1.45Z"/><path class="cls-2" d="M21.88,13.15c5.26-.85,10.82-1.33,15.08,2.53,4,3.63,5,9.07,3.2,14.07-.32.91,1.13,1.3,1.45.4A14.23,14.23,0,0,0,38,14.62c-4.71-4.25-10.67-3.87-16.54-2.91-1,.15-.55,1.6.4,1.45Z"/><path class="cls-2" d="M18.67,31.63a44.86,44.86,0,0,1,14.6-.7c1,.11.95-1.39,0-1.5a46.07,46.07,0,0,0-15,.76c-.94.2-.54,1.65.4,1.45Z"/><path class="cls-2" d="M20.2,31.11c.17,1.18.08,2.47.34,3.63A1.49,1.49,0,0,0,22.15,36c.83-.13,1.07-.94,1.07-1.67a31.35,31.35,0,0,0-.35-4c-.12-.95-1.62-1-1.5,0,.09.73.17,1.46.23,2.19,0,.4,0,1.73.26,1.89s.1-.5.09-.7,0-.71-.07-1.06c-.06-.65-.14-1.31-.24-2-.14-1-1.58-.55-1.45.4Z"/><path class="cls-2" d="M28.18,30.16c.15,1.27.23,2.57.46,3.83.12.7.53,1.5,1.33,1.55s1.3-.75,1.34-1.49a38.07,38.07,0,0,0-.2-4c-.05-1-1.55-1-1.5,0l.12,2.27.05.94c0,.32-.12.79.23.8s.1-.35.07-.62-.09-.73-.13-1.09l-.26-2.18c-.11-.95-1.61-1-1.5,0Z"/></svg>