<svg id="Layer_1" data-name="Layer 1" xmlns="http://www.w3.org/2000/svg" viewBox="0 0 50 50"><defs><style>.cls-1{fill:#0bd7e0;}.cls-2{fill:#fff;}</style></defs><title>lists-logo</title><circle class="cls-1" cx="25" cy="25" r="25"/><path class="cls-2" d="M14.25,14.42q.41,11.56.3,23.13a.75.75,0,0,0,1.5,0q.1-11.57-.3-23.13c0-1-1.53-1-1.5,0Z"/><path class="cls-2" d="M15,15.07q9.54.06,19.08,0a.75.75,0,0,0,0-1.5q-9.54.1-19.08,0a.75.75,0,0,0,0,1.5Z"/><path class="cls-2" d="M15.49,38.36q9.54.06,19.08,0a.75.75,0,0,0,0-1.5q-9.54.1-19.08,0a.75.75,0,0,0,0,1.5Z"/><path class="cls-2" d="M33.44,14.48a137.88,137.88,0,0,1,.29,23c-.07,1,1.43,1,1.5,0a137.88,137.88,0,0,0-.29-23c-.09-1-1.59-1-1.5,0Z"/><path class="cls-2" d="M15.5,18.69q9.16.17,18.3-.43c1-.06,1-1.56,0-1.5q-9.14.6-18.3.43a.75.75,0,0,0,0,1.5Z"/><path class="cls-2" d="M15.54,21q9.74.16,19.46-.46c1-.06,1-1.56,0-1.5q-9.72.61-19.46.46a.75.75,0,0,0,0,1.5Z"/><path class="cls-2" d="M33,18.1l-.28.81a.75.75,0,0,0,1.37.58l.25-.48a.76.76,0,0,0-.65-1.13q-4.52,0-9,.24c-.81,0-1.06,1.28-.2,1.47a25.15,25.15,0,0,0,8.29.19c.94-.1,1-1.54,0-1.5-5.4.22-11.69-1.24-16.88.31a.75.75,0,0,0,.2,1.47,64,64,0,0,0,8.17.1c1,0,1-1.55,0-1.5a64,64,0,0,1-8.17-.1l.2,1.47c2.84-.84,5.75-.35,8.66-.23,2.61.11,5.22.08,7.83,0v-1.5a23.82,23.82,0,0,1-7.89-.13l-.2,1.47q4.51-.25,9-.24l-.65-1.13-.25.48,1.37.58.28-.81c.32-.91-1.13-1.31-1.45-.4Z"/><path class="cls-2" d="M17.73,23a1.28,1.28,0,0,0,1.54,2,1.33,1.33,0,0,0,.54-1.72,1.45,1.45,0,0,0-1.68-.71.75.75,0,0,0,.4,1.45c-.08,0-.09-.24,0-.29s.39.13.22.32c.65-.71-.41-1.77-1.06-1.06Z"/><path class="cls-2" d="M18.22,27.18a1.28,1.28,0,0,0,.85,2.2,1.23,1.23,0,0,0,.82-2.11c-.67-.69-1.73.37-1.06,1.06q.21-.86.45-.09c.64-.72-.41-1.78-1.06-1.06Z"/><path class="cls-2" d="M17.94,31.18A1.23,1.23,0,0,0,19,33.3a1.35,1.35,0,0,0,.28-2.51.75.75,0,0,0-.76,1.3c.1.06-.07-.13.13-.24s.53.25.35.39a.76.76,0,0,0,0-1.06.77.77,0,0,0-1.06,0Z"/><path class="cls-2" d="M21.18,24.57l10.48-.45c1,0,1-1.54,0-1.5l-10.48.45c-1,0-1,1.54,0,1.5Z"/><path class="cls-2" d="M21.19,28.88c3.6-.22,7.4.36,10.94-.25.95-.16.55-1.61-.4-1.45-3.39.58-7.09,0-10.54.19-1,.06-1,1.56,0,1.5Z"/><path class="cls-2" d="M21.32,32.7a35.91,35.91,0,0,0,10.64,0c1-.14.55-1.59-.4-1.45a33.43,33.43,0,0,1-9.84,0c-.94-.14-1.35,1.31-.4,1.45Z"/></svg>