<svg id="Layer_1" data-name="Layer 1" xmlns="http://www.w3.org/2000/svg" viewBox="0 0 290.54 68.94"><defs><style>.cls-1{fill:#fff;}.cls-2{fill:#f37c8d;}.cls-3{fill:#873299;}.cls-4{fill:#0083cc;}.cls-5{fill:#0bd7e0;}.cls-6{fill:#ff9903;}.cls-7{fill:#3c6;}.cls-8{fill:#ffce00;}.cls-9{fill:#e81a4b;}</style></defs><title>logo-light</title><rect class="cls-1" x="10.18" y="47.33" width="10.86" height="30.55" transform="translate(78.22 46.99) rotate(90)"/><rect class="cls-2" x="44.13" width="10.86" height="10.86" transform="translate(44.13 55) rotate(-90)"/><rect class="cls-3" y="17.12" width="10.86" height="50.92"/><rect class="cls-1" x="44.13" y="17.12" width="10.86" height="50.92"/><rect class="cls-4" x="44.13" y="17.12" width="10.86" height="33.95"/><rect class="cls-1" x="184" y="17.12" width="10.86" height="50.92"/><rect class="cls-5" x="184" y="51.74" width="10.86" height="16.97"/><rect class="cls-1" x="220.61" y="17.12" width="10.86" height="50.92"/><rect class="cls-1" x="105.24" y="17.12" width="10.86" height="50.92"/><rect class="cls-1" x="132.4" y="17.12" width="10.86" height="50.92"/><rect class="cls-1" x="71.29" y="17.12" width="10.86" height="50.92"/><rect class="cls-6" x="132.4" y="51.06" width="10.86" height="16.97"/><rect class="cls-7" x="220.61" y="3.22" width="10.86" height="38.02" transform="translate(203.81 248.28) rotate(-90)"/><rect class="cls-1" x="266.1" y="3.48" width="10.86" height="38.02" transform="translate(249.04 294.02) rotate(-90)"/><rect class="cls-1" x="266.1" y="43.96" width="10.86" height="38.02" transform="translate(208.56 334.51) rotate(-90)"/><polygon class="cls-1" points="142.84 41.97 142.84 50.75 147 47.74 160.24 68.94 172.23 68.94 154.69 40.83 172.23 18.63 160.35 18.63 142.84 41.97"/><polygon class="cls-8" points="81.99 17.11 86.4 17.11 115.77 67.89 104.22 68.04 81.99 29.62 81.99 17.11"/><path class="cls-9" d="M290.54,17.06v11L259.35,68.39h-6.89V57.25l31.37-40.2S290.59,17.1,290.54,17.06Z"/></svg>