<svg id="Layer_1" data-name="Layer 1" xmlns="http://www.w3.org/2000/svg" viewBox="0 0 427.92 101.53"><defs><style>.cls-1{fill:#999;}.cls-2{fill:#f37c8d;}.cls-3{fill:#873299;}.cls-4{fill:#0083cc;}.cls-5{fill:#0bd7e0;}.cls-6{fill:#ff9903;}.cls-7{fill:#3c6;}.cls-8{fill:#ffce00;}.cls-9{fill:#e81a4b;}</style></defs><title>logo</title><rect class="cls-1" x="15" y="69.71" width="16" height="45" transform="translate(115.21 69.21) rotate(90)"/><rect class="cls-2" x="65" width="16" height="16" transform="translate(65 81) rotate(-90)"/><rect class="cls-3" y="25.21" width="16" height="75"/><rect class="cls-1" x="65" y="25.21" width="16" height="75"/><rect class="cls-4" x="65" y="25.21" width="16" height="50"/><rect class="cls-1" x="271" y="25.21" width="16" height="75"/><rect class="cls-5" x="271" y="76.21" width="16" height="25"/><rect class="cls-1" x="324.92" y="25.21" width="16" height="75"/><rect class="cls-1" x="155" y="25.21" width="16" height="75"/><rect class="cls-1" x="195" y="25.21" width="16" height="75"/><rect class="cls-1" x="105" y="25.21" width="16" height="75"/><rect class="cls-6" x="195" y="75.21" width="16" height="25"/><rect class="cls-7" x="324.92" y="4.75" width="16" height="56" transform="translate(300.17 365.67) rotate(-90)"/><rect class="cls-1" x="391.92" y="5.12" width="16" height="56" transform="translate(366.79 433.04) rotate(-90)"/><rect class="cls-1" x="391.92" y="64.75" width="16" height="56" transform="translate(307.17 492.67) rotate(-90)"/><polygon class="cls-1" points="210.38 61.81 210.38 74.75 216.5 70.31 236 101.53 253.67 101.53 227.83 60.14 253.67 27.43 236.17 27.43 210.38 61.81"/><polygon class="cls-8" points="120.75 25.21 127.25 25.21 170.5 99.99 153.5 100.21 120.75 43.63 120.75 25.21"/><path class="cls-9" d="M427.92,25.12V41.4L382,100.72H371.83V84.33L418,25.12S428,25.19,427.92,25.12Z"/></svg>