<svg id="Layer_1" data-name="Layer 1" xmlns="http://www.w3.org/2000/svg" viewBox="0 0 427.92 76.78"><defs><style>.cls-1{fill:#999;}.cls-2{fill:#873299;}.cls-3{fill:#0083cc;}.cls-4{fill:#0bd7e0;}.cls-5{fill:#ff9903;}.cls-6{fill:#3c6;}.cls-7{fill:#ffce00;}.cls-8{fill:#e81a4b;}</style></defs><title>logo</title><rect class="cls-1" x="15" y="44.96" width="16" height="45" transform="translate(90.46 44.46) rotate(90)"/><rect class="cls-2" y="0.46" width="16" height="75"/><rect class="cls-1" x="65" y="0.46" width="16" height="75"/><rect class="cls-3" x="65" y="0.46" width="16" height="50"/><rect class="cls-1" x="271" y="0.46" width="16" height="75"/><rect class="cls-4" x="271" y="51.46" width="16" height="25"/><rect class="cls-1" x="324.92" y="0.46" width="16" height="75"/><rect class="cls-1" x="155" y="0.46" width="16" height="75"/><rect class="cls-1" x="195" y="0.46" width="16" height="75"/><rect class="cls-1" x="105" y="0.46" width="16" height="75"/><rect class="cls-5" x="195" y="50.46" width="16" height="25"/><rect class="cls-6" x="324.92" y="-20" width="16" height="56" transform="translate(324.92 340.92) rotate(-90)"/><rect class="cls-1" x="391.92" y="-19.63" width="16" height="56" transform="translate(391.54 408.29) rotate(-90)"/><rect class="cls-1" x="391.92" y="40" width="16" height="56" transform="translate(331.92 467.92) rotate(-90)"/><polygon class="cls-1" points="210.38 37.06 210.38 50 216.5 45.56 236 76.78 253.67 76.78 227.83 35.39 253.67 2.68 236.17 2.68 210.38 37.06"/><polygon class="cls-7" points="120.75 0.46 127.25 0.46 170.5 75.24 153.5 75.46 120.75 18.88 120.75 0.46"/><path class="cls-8" d="M427.92.38V16.65L382,76H371.83V59.58L418,.38S428,.44,427.92.38Z"/></svg>