<svg id="Layer_1" data-name="Layer 1" xmlns="http://www.w3.org/2000/svg" viewBox="0 0 337.17 60.5"><defs><style>.cls-1{fill:#fff;}.cls-2{fill:#873299;}.cls-3{fill:#0083cc;}.cls-4{fill:#0bd7e0;}.cls-5{fill:#ff9903;}.cls-6{fill:#3c6;}.cls-7{fill:#ffce00;}.cls-8{fill:#e81a4b;}</style></defs><title>logo-light</title><rect class="cls-1" x="11.82" y="35.42" width="12.61" height="35.46" transform="translate(71.27 35.03) rotate(90)"/><rect class="cls-2" y="0.36" width="12.61" height="59.09"/><rect class="cls-1" x="51.22" y="0.36" width="12.61" height="59.09"/><rect class="cls-3" x="51.22" y="0.36" width="12.61" height="39.4"/><rect class="cls-1" x="213.53" y="0.36" width="12.61" height="59.09"/><rect class="cls-4" x="213.53" y="40.55" width="12.61" height="19.7"/><rect class="cls-1" x="256.01" y="0.36" width="12.61" height="59.09"/><rect class="cls-1" x="122.13" y="0.36" width="12.61" height="59.09"/><rect class="cls-1" x="153.65" y="0.36" width="12.61" height="59.09"/><rect class="cls-1" x="82.73" y="0.36" width="12.61" height="59.09"/><rect class="cls-5" x="153.65" y="39.76" width="12.61" height="19.7"/><rect class="cls-6" x="256.01" y="-15.76" width="12.61" height="44.12" transform="translate(256.01 268.62) rotate(-90)"/><rect class="cls-1" x="308.8" y="-15.46" width="12.61" height="44.12" transform="translate(308.51 321.71) rotate(-90)"/><rect class="cls-1" x="308.8" y="31.52" width="12.61" height="44.12" transform="translate(261.53 368.69) rotate(-90)"/><polygon class="cls-1" points="165.76 29.2 165.76 39.4 170.59 35.9 185.95 60.5 199.87 60.5 179.52 27.89 199.87 2.12 186.08 2.12 165.76 29.2"/><polygon class="cls-7" points="95.14 0.36 100.26 0.36 134.34 59.28 120.95 59.46 95.14 14.87 95.14 0.36"/><path class="cls-8" d="M337.17.3V13.12L301,59.86h-8V46.94L329.38.3S337.22.35,337.17.3Z"/></svg>