<svg id="Layer_1" data-name="Layer 1" xmlns="http://www.w3.org/2000/svg" viewBox="0 0 50 50"><defs><style>.cls-1{fill:#3c6;}.cls-2{fill:#fff;}</style></defs><title>loops-logo</title><circle class="cls-1" cx="25" cy="25" r="25"/><path class="cls-2" d="M21.65,11.7c-5.25,1.72-10.21,7.63-9.87,13.39.31,5.27,4.71,10.21,9.63,11.77a12.59,12.59,0,0,0,13.95-4.53c3.16-4.49,4.41-11.32-.1-15.24a.76.76,0,0,0-1.06,0,5.49,5.49,0,0,1-2.95,2.14.75.75,0,0,0-.34.85c1.55,5.36-.21,13.76-7.76,11.29-6.41-2.1-6.4-10.07-.8-13.27a.75.75,0,0,0-.76-1.3c-4.77,2.72-6.89,8.88-3.11,13.41a8.39,8.39,0,0,0,13.27-.37,8,8,0,0,0,1.46-3.25c.34-1.72-.72-3.76-.39-5.29.86-4,3.33-1,3.78,1.38.58,3.12-1.2,7.5-3.25,9.77-4.32,4.79-11.85,4.32-16.27,0-6.31-6.13-3.26-16.64,5-19.34.91-.3.52-1.75-.4-1.45Z"/><path class="cls-2" d="M22.72,12.06a16.1,16.1,0,0,1-.18-4.6l-1.13.65q4.75,3,9.25,6.26l-.15-1.18q-4,4.17-8.08,8.22l1.25.33L23,17.82c-.16-1-1.6-.55-1.45.4l.64,3.93a.76.76,0,0,0,1.25.33q4.1-4,8.08-8.22a.76.76,0,0,0-.15-1.18q-4.51-3.31-9.25-6.26A.76.76,0,0,0,21,7.47a17.8,17.8,0,0,0,.24,5c.17.95,1.62.55,1.45-.4Z"/><path class="cls-2" d="M33,22.21a16,16,0,0,1,2.69-.61c.61-.08,1.43.05,1.9-.43a.77.77,0,0,0,.12-.91.85.85,0,0,0-.75-.44.76.76,0,0,0-.72.55l0,0c-.35.9,1.1,1.29,1.45.4l0,0-.72.55H37L36.36,21l0,.06.12-.91c.13-.13-.84,0-.94,0l-.83.12a17.13,17.13,0,0,0-2.16.53c-.92.29-.53,1.73.4,1.45Z"/><path class="cls-2" d="M32.63,24.52a11.44,11.44,0,0,0,3.9.37c1-.08,1-1.58,0-1.5a10.19,10.19,0,0,1-3.5-.31.75.75,0,0,0-.4,1.45Z"/><path class="cls-2" d="M32.16,27.42a8.47,8.47,0,0,0,3.34,1.24c.94.14,1.35-1.31.4-1.45a7.42,7.42,0,0,1-3-1.09c-.82-.52-1.57.78-.76,1.3Z"/><path class="cls-2" d="M31.36,29.59l3.94,2.86c.78.57,1.53-.73.76-1.3L32.12,28.3c-.78-.57-1.53.73-.76,1.3Z"/><path class="cls-2" d="M29.76,31.89l1.95,1.79c.71.65,1.77-.4,1.06-1.06l-1.95-1.79c-.71-.65-1.77.4-1.06,1.06Z"/><path class="cls-2" d="M27.36,32.75l1.11,2.62a.78.78,0,0,0,.92.52.75.75,0,0,0,.52-.92L28.8,32.35a.78.78,0,0,0-.92-.52.75.75,0,0,0-.52.92Z"/><path class="cls-2" d="M26.21,36.11a8,8,0,0,0-.55-3.26c-.35-.89-1.8-.5-1.45.4a6.91,6.91,0,0,1,.5,2.86c0,1,1.46,1,1.5,0Z"/><path class="cls-2" d="M22.55,35.66a21.81,21.81,0,0,0,.2-4.43c-.06-1-1.56-1-1.5,0a19.93,19.93,0,0,1-.15,4c-.13.94,1.31,1.35,1.45.4Z"/><path class="cls-2" d="M18.26,34.2l1.8-2.87c.52-.82-.78-1.57-1.3-.76L17,33.44c-.52.82.78,1.57,1.3.76Z"/><path class="cls-2" d="M15.91,30.94l0-.1v.4q-.14.17,0,0l.29-.15a5.85,5.85,0,0,0,.55-.34,7.35,7.35,0,0,0,1-.85c.68-.69-.38-1.75-1.06-1.06a5.73,5.73,0,0,1-1.46,1.07,1.21,1.21,0,0,0-.78,1.4.75.75,0,0,0,1.45-.4Z"/><path class="cls-2" d="M13.94,28.84a14,14,0,0,0,3-1.55c.79-.54,0-1.84-.76-1.3a12.4,12.4,0,0,1-2.67,1.4c-.9.33-.51,1.78.4,1.45Z"/><path class="cls-2" d="M12.84,24.34q1.65.31,3.28.69c.94.22,1.34-1.23.4-1.45s-2.18-.48-3.28-.69c-.94-.18-1.35,1.27-.4,1.45Z"/><path class="cls-2" d="M14,20.65a12.53,12.53,0,0,1,3.25,1.59c.8.54,1.55-.76.76-1.3a14,14,0,0,0-3.6-1.74c-.92-.29-1.32,1.15-.4,1.45Z"/><path class="cls-2" d="M16,17.58q1.13.83,2.19,1.75c.72.63,1.79-.42,1.06-1.06s-1.63-1.36-2.49-2a.76.76,0,0,0-1,.27.77.77,0,0,0,.27,1Z"/><path class="cls-2" d="M18.35,14.81a23.25,23.25,0,0,0,1.55,2.91c.51.81,1.81.06,1.3-.76a23.25,23.25,0,0,1-1.55-2.91c-.39-.88-1.69-.12-1.3.76Z"/><path class="cls-2" d="M21.26,12.87a22.14,22.14,0,0,0,.41,4.45c.18.95,1.63.55,1.45-.4a20.11,20.11,0,0,1-.36-4.05.75.75,0,0,0-1.5,0Z"/><path class="cls-2" d="M24.23,13.86,22.81,19a.76.76,0,0,0,1.25.73c1.15-1,2.08-2.05,3.34-3a7.33,7.33,0,0,0,2.39-2.48.76.76,0,0,0-.27-1,48.84,48.84,0,0,1-6.33-4c-.54-.4-1.27.26-1.1.85a28.08,28.08,0,0,1,1,5.84c0,.5.64,1,1.13.65.82-.63,1.62-.34,2.44-.59a1,1,0,0,0,.72-.63c.44-1.23-1.5-1.81-2-2.56L24.52,14a12.12,12.12,0,0,1,2.4,1,.75.75,0,0,0,.76-1.3c-1-.58-3.31-1.37-3.74-2.4-.36-.85,0-1.53-.8-2.26-.59-.57-1.71.21-1.18.91,1.58,2.06.19,4.34,1,6.52.34.89,1.79.51,1.45-.4-.48-1.25,0-2.77-.11-4.1a5.28,5.28,0,0,0-1.06-2.78L22.07,10c.73.71.22,2.09,1.06,2.86a4.94,4.94,0,0,0,1.32.59c.85.4,1.66,1,2.47,1.43l.76-1.3a13.84,13.84,0,0,0-2.75-1.12c-.59-.17-1.24.56-.85,1.1a3.68,3.68,0,0,0,1.2,1.27s1.85,1,1.07-.34c-.38-.66-2.59.58-2.86.79l1.13.65a30,30,0,0,0-1.07-6.24l-1.1.85a48.84,48.84,0,0,0,6.33,4l-.27-1c-.72,1.34-2,2-3.17,2.87-.87.67-1.5,1.55-2.33,2.26l1.25.73,1.42-5.17a.75.75,0,0,0-1.45-.4Z"/></svg>