<svg id="Layer_1" data-name="Layer 1" xmlns="http://www.w3.org/2000/svg" viewBox="0 0 50 50"><defs><style>.cls-1{fill:#3c6;}.cls-2{fill:#fff;}</style></defs><title>motion-logo</title><circle class="cls-1" cx="25" cy="25" r="25"/><path class="cls-2" d="M29.33,18.77c-.9,3.88-1.67,7,3.49,8,.4.08,1-.64,1.28-.58,2.23.46,1.91.83,2.28,3.19.49,3.15.27,3.74-2.69,4.92-2.54,1-6.45,1.82-4.56-2a.78.78,0,0,0-.27-1c-3.68-2.81-3.69-2.84-8-1-.33.14-.7.51-.52.92l.56,2.94-1.53-.45c-1.87.16-4.34-1.58-5.19-3.11a4.67,4.67,0,0,1,.11-5.24c.95-1.48,2.11-2.45,3.32-.56a.77.77,0,0,0,1,.27c4.1-2,4.55-1.88,5.64-6.22a.76.76,0,0,0-.52-.92c-.61-.13-3.24-.48-3.46-1.12-.09-.26,3.4-3,3.67-3.12,1.53-.83,3.62-1.33,5.16-.38.51.32,4.66,5.47,1.12,5.07-1-.11-1,1.39,0,1.5,4.9.55,4-2.85,1.61-5.82-3-3.64-4.63-5.09-8.21-2.06-1.05.89-4.89,3.1-5,4.73S20,18.16,20.93,18.7c3,1.8-.33,5.29-2.74,4.12C17,22.24,17.55,20.9,16,21.07c-3.06.33-4.91,7.47-4,9.72s7.79,6.14,10,4.62c1.13-.78.16-2,.46-3.07.41-1.39,1.29-2.37,2.93-1.87A4,4,0,0,1,27.07,32c.34,1-.33.51-.37,1.44-.14,3.86,1.77,3.31,5.68,2.67,1.74-.29,4.79-.36,5.69-2.28s-.28-6.63-1-8.51c-.63-1.57-.49-1.72-2.17-1.9-.54-.06-.84.92-1.27,1-4,.62-3.42-2.64-2.82-5.2.22-.94-1.23-1.34-1.45-.4Z"/></svg>