<svg id="Layer_1" data-name="Layer 1" xmlns="http://www.w3.org/2000/svg" viewBox="0 0 255 255"><defs><style>.cls-1{fill:#efefef;}.cls-2{fill:#ffce00;}.cls-3{fill:#f37c8d;}.cls-11,.cls-12,.cls-13,.cls-4{fill:none;stroke-miterlimit:10;stroke-width:2px;}.cls-12,.cls-13,.cls-4{stroke:#000;}.cls-13,.cls-4{stroke-linecap:square;}.cls-4{stroke-dasharray:0.96 5.75;}.cls-5{fill:#0bd7e0;}.cls-6{fill:#3c6;}.cls-7{fill:#873299;}.cls-8{fill:#0083cc;}.cls-9{fill:#ff9903;}.cls-10{fill:#e81a4b;}.cls-11{stroke:#231f20;}</style></defs><title>boopit</title><rect class="cls-1" width="255" height="255"/><circle class="cls-2" cx="51.63" cy="96.33" r="24.2"/><circle class="cls-3" cx="93.91" cy="47.83" r="7.01"/><circle class="cls-4" cx="69.42" cy="57.61" r="8.54"/><circle class="cls-5" cx="135.76" cy="133.1" r="17.43"/><circle class="cls-6" cx="48.08" cy="62.86" r="4.03"/><circle class="cls-7" cx="78.28" cy="39.03" r="4.03"/><circle class="cls-8" cx="51.1" cy="46.86" r="4.03"/><circle class="cls-9" cx="88.42" cy="65.85" r="4.03"/><circle class="cls-10" cx="200.67" cy="192.74" r="24.2"/><path class="cls-11" d="M170.48,166.51a35.73,35.73,0,0,1,5,8.28s-8.39,17.46-2.69,28.09c0,0,5.26,11,18.47,3.69,0,0,15.33-8.28,17.24-25.74,0,0,1.12-12.2-7.5-16.68,0,0-5.15-2.8-13.09-.56,0,0-2.24,1.68-3.13-3,0,0,3.69-4.36,4-5.48a3.81,3.81,0,0,0-.22-3.13s-10.52-19.36-28.32-30.78c0,0-10.07-13.54-27.31-15.67,0,0-16.79-3.13-28.76,10.86l-.19-.8L85.76,87.16s2.91-5-.11-6.94c0,0-5.48-5.6-20.71,4.36,0,0-12.87,7.95-12.65,15.33,0,0-.9,3.47,4.7,4.92,0,0,15.44,14.21,16,15l1.79,2.35-2.46,5a7.2,7.2,0,0,0,.9,4.59s9.63,18.58,25,28.65a37.84,37.84,0,0,0,24.62,17.91s21.38,7.16,35.48-14.21a2.85,2.85,0,0,1,2.35,2s1.45,2.46,3,2.13A70.32,70.32,0,0,0,170.48,166.51Z"/><path class="cls-11" d="M170.48,166.51s-.22-2.69,4.7-5.26c0,0,8.06-4.25,9.63-1"/><path class="cls-11" d="M74.79,122.19s21.38,34.36,43.31,43.65"/><path class="cls-11" d="M103.33,117.38s-6.38,11.19-2.69,21.71a55.15,55.15,0,0,0,11.42,21.71"/><path class="cls-11" d="M98.18,160.47s8.17,6.94,17.24,9.51"/><path class="cls-11" d="M73.45,125.89s6.27,14.33,21.15,27.76c0,0,21.15,18.24,38.39,20.15,0,0,18.13.34,25.29-9.63,7.44-10.35,9.63-18.35,9.63-18.35.22-15.67-7.61-24.62-7.61-24.62"/><path class="cls-11" d="M175.63,174.46s5.48-6.49,10-9"/><ellipse class="cls-11" cx="134.65" cy="135.06" rx="27.77" ry="33.37" transform="translate(-52.49 171.8) rotate(-56.2)"/><path class="cls-12" d="M138.76,119.63s3.81-2.61,6.76-2.82c0,0,8.83-1.9,12,10.22,0,0,3.83,11.39-3.39,14.77a16.73,16.73,0,0,1-8.75,1.78l-.41.39s1.38,7.12-2.95,11.22c0,0-4.32,4.65-13.65,1.5,0,0-11.75-3.17-10.91-10.86,0,0,.52-5.51,3.34-8.46l-.19-.68A13,13,0,0,1,113.8,131s-4.56-7,4.67-14.67c0,0,8.48-8.44,14.89-3,0,0,3.76,3.38,4.75,6.07Z"/><path class="cls-12" d="M139,119.94a49.26,49.26,0,0,1,6.33,23.12"/><path class="cls-12" d="M121.1,137.66s8.15,4.75,23.36,6.19"/><path class="cls-12" d="M121,136.34s4.69-9.52,16.8-16.51"/><polygon points="119.47 120.93 121.94 120.29 122.76 117.74 121.34 117.25 124.16 115.92 125.72 118.53 124.33 118.13 123.61 120.62 125.61 122.74 126.61 121.82 126.6 124.93 123.39 124.94 124.43 123.84 122.46 121.81 119.76 122.49 120.08 123.93 117.22 122.35 118.89 119.48 119.47 120.93"/><polygon points="145.77 124.6 147.55 123.64 147.59 121.75 149.05 123.03 151.06 122.61 150.35 124.22 151.26 125.98 149.35 125.99 148.04 127.56 147.56 125.54 145.77 124.6"/><polygon points="152.87 130.14 153.6 129.19 153.17 128.16 154.27 128.51 155.25 127.8 155.25 128.84 156.16 129.57 155.14 130.03 154.81 131.2 154.06 130.22 152.87 130.14"/><polygon points="147.82 135.48 148.87 134.3 148.41 132.9 149.81 133.46 151.18 132.63 151.08 133.99 152.21 135.04 150.81 135.55 150.26 137.05 149.38 135.69 147.82 135.48"/><polygon points="138.88 148.55 138.8 150.56 140.4 151.56 138.55 152.15 137.89 154.08 136.88 152.66 134.91 152.53 135.87 150.9 135.2 148.97 137.17 149.6 138.88 148.55"/><polygon points="128.68 149.69 129.19 151.12 130.6 151.37 129.47 152.31 129.56 153.85 128.44 153.14 127.03 153.62 127.23 152.2 126.21 151.04 127.77 150.91 128.68 149.69"/><polygon points="126.32 143.4 126.76 144.87 128.16 145.21 126.97 146.08 126.97 147.64 125.89 146.86 124.44 147.26 124.73 145.84 123.77 144.62 125.34 144.58 126.32 143.4"/><line class="cls-13" x1="215.62" y1="192.82" x2="227.43" y2="197.58"/><line class="cls-13" x1="202.46" y1="210.72" x2="209.36" y2="221.25"/><line class="cls-13" x1="210.43" y1="203.26" x2="220.18" y2="211.2"/></svg>