<svg id="Layer_1" data-name="Layer 1" xmlns="http://www.w3.org/2000/svg" viewBox="0 0 255 255"><defs><style>.cls-1,.cls-5{fill:#efefef;}.cls-2{fill:#873299;}.cls-3{fill:#0bd7e0;}.cls-12,.cls-4,.cls-6{fill:none;}.cls-12,.cls-4,.cls-5{stroke:#000;}.cls-12,.cls-4,.cls-5,.cls-6{stroke-miterlimit:10;stroke-width:2px;}.cls-6{stroke:#231f20;}.cls-7{fill:#ffce00;}.cls-8{fill:#0083cc;}.cls-9{fill:#e81a4b;}.cls-10{fill:#f37c8d;}.cls-11{fill:#3c6;}.cls-12{stroke-linecap:square;stroke-dasharray:1.03 6.15;}</style></defs><title>dance-pal-1</title><rect class="cls-1" width="255" height="255"/><circle class="cls-2" cx="164.85" cy="136.33" r="35"/><path class="cls-3" d="M30.92,107.4a13.63,13.63,0,0,1,1.62-4.15c.43-.67,2.51-2.26,1.47-2.86,1.9,1.11-.33,9.89-.68,11.63-1,4.88-3.53,11.43.32,15.71s8.73,2.51,11.66-1.5c2.19-3,4.24-6,6.62-8.88q1.68-2,3.46-4c.3-.33,3.67-3.44,3.65-3.8L56.89,108A18.78,18.78,0,0,1,57,111.4a52.73,52.73,0,0,1-.55,5.85c-.39,3-.9,6.05-1,9.12-.15,4.59.52,11,5.83,12.6s9.71-4.68,12.53-8.3,6.82-11.14,11.69-12.52l-3.47-.45c-.66-.48-.16,4.45-.16,4.53.06,1.48,0,3-.1,4.44-.18,3.29-.61,6.55-.8,9.84-.25,4.35-.65,10.07,3.78,12.51,5.24,2.88,9.26-2.73,12.38-6.08l14.39-15.43-7.52-2c1.32,4.11-.65,9.71-.33,14.09.31,4.19.8,9.46,3.18,13,5.26,7.88,13.76-1.15,17.72-5.56s-2.49-10.69-6.36-6.36c-.76.85-6.47,5.56-6.44,6l2.46.77q-.42-1.33-.72-2.7a33.92,33.92,0,0,1-.84-5.2c-.42-5.46,1.7-11.21,0-16.48-1-3.1-5.11-4.57-7.52-2l-9.81,10.52-4.58,4.91c-1.1,1.18-2.89,4-4.46,4.42l3.47.45c.5.22-.63,1.58.11-.47a11.43,11.43,0,0,0,0-2.69c.05-1.79.21-3.59.37-5.37a83.39,83.39,0,0,0,.57-11.58c-.26-4.85-1.32-13.55-8.28-11.72-5.16,1.36-9.3,7-12.36,11-1.79,2.35-3.48,4.78-5.45,7-.31.35-1.33,1.13-1.46,1.56l-.5.51,2,1.15c-.08,0-.24-5.69-.19-6.23.47-6.25,3.11-14,.58-20.05-2.6-6.24-8.34-5.32-12.47-1.32A112.32,112.32,0,0,0,39,119.53a12.41,12.41,0,0,0-1.48,2.16l1.53-.11q1.85.61,1.69-1c.75-1.14.78-3.91,1.07-5.28a56.59,56.59,0,0,0,1.55-10.83c.07-5.69-2-14.47-9.5-13.19-6.15,1-10.25,8.26-11.62,13.75s7.28,8,8.68,2.39Z" transform="translate(-0.23 -0.71)"/><path d="M27.87,106.18c1-2.44,3.71-1.58,5.14-.74,1.88,1.1,2.52,1.43,3.11,3.45a30.59,30.59,0,0,1,.52,4.59c.28,2.12.94,4.37,2.82,5.65,5.17,3.52,9.45-3.35,13.78-4.85,2.08-.72-.11-1.51,3.35.73,2.79,1.8,1.84,1,2.65,3.16.72,1.95.58,4.54.74,6.61.18,2.34-.09,6.56,1.3,8.61,3,4.46,7.29-2.53,8.94-4.57l7.18-8.87L81,115.5l1.8-2.22c.93-1.15,1.22-2.5,2.34-1.5,2,1.8-.43,9.6-.78,12.22a64.21,64.21,0,0,0-.52,10.35c.09,2.88-.52,12,3.36,13s9.6-4.94,12.3-7.23c1.39-1.18,2.75-2.39,4.18-3.51,2.58-2,4.83-4.19,5.25.51.23,2.59.28,5.18,1.82,7.41,3.26,4.72,8.21,2.64,11.68-.55,1.43-1.31-.7-3.42-2.12-2.12q-2,3.19-4.93.4-3.85-.11-3.37-3.62c-.12-1.07-.08-2.15-.22-3.22a7.92,7.92,0,0,0-1.84-4.68,1.5,1.5,0,0,0-1.46-.39c-7,1.55-11.37,9.5-17.62,12.58a4.12,4.12,0,0,1-3,1q-.48-2.5-.75-5a62.43,62.43,0,0,1-.34-7.27A113.91,113.91,0,0,1,88.25,118c.34-2.56,2-11.89-3.47-10.74-3,.63-5.39,5.46-7.11,7.58l-9,11.09c-.66.82-3.27,5.1-4.19,5.17-1.81.16-1.39-4.56-1.53-6.35-.27-3.43-.29-7.35-1.8-10.53-2.77-5.85-7.21-4.06-11.56-1.12-1.32.89-3.24,2.84-4.8,3.19-6.38,1.4-5-3.75-5.52-6.85a10.43,10.43,0,0,0-3.86-6.76c-3.72-2.72-8.72-1.54-10.46,2.69-.74,1.78,2.17,2.56,2.89.8Z" transform="translate(-0.23 -0.71)"/><path class="cls-4" d="M203.38,76.34S211.47,63.56,221.3,72c0,0,8.69,6.42-1.72,18.52L122.5,201.21s-8,10.5-16.3,3.34c0,0-8.38-6.16,1-17Z" transform="translate(-0.23 -0.71)"/><ellipse class="cls-4" cx="193.61" cy="103.59" rx="8.46" ry="6.03" transform="translate(-11.42 182.07) rotate(-49.29)"/><circle class="cls-4" cx="139.16" cy="166.86" r="4.94" transform="translate(-78.32 162.81) rotate(-49.29)"/><circle class="cls-4" cx="214.21" cy="80.3" r="5.01" transform="translate(13.4 189.59) rotate(-49.29)"/><circle class="cls-4" cx="130.58" cy="176.84" r="4.94" transform="translate(-88.87 159.77) rotate(-49.29)"/><circle class="cls-4" cx="121.99" cy="186.82" r="4.94" transform="translate(-99.42 156.73) rotate(-49.29)"/><circle class="cls-4" cx="113.4" cy="196.8" r="4.94" transform="translate(-109.97 153.69) rotate(-49.29)"/><path class="cls-5" d="M171.43,150.88s-1.34,4.42-3.51,6.43c0,0-5.7,7-15.74-.49,0,0-10.11-6.49-6.6-13.65a16.74,16.74,0,0,1,5.72-6.87l.08-.57s-5.53-4.69-4.72-10.61c0,0,.47-6.34,9.71-9.71,0,0,11.16-4.88,15.31,1.65,0,0,3,4.63,2.69,8.7l.57.41a13,13,0,0,1,8.87.22s7.95,2.62,5.54,14.38c0,0-1.34,11.89-9.72,11.69,0,0-5-.29-7.51-1.76Z" transform="translate(-0.23 -0.71)"/><path class="cls-4" d="M171,150.8a49.29,49.29,0,0,1-19.41-14.08" transform="translate(-0.23 -0.71)"/><path class="cls-4" d="M173.92,125.75s-9.34,1.39-22.11,9.79" transform="translate(-0.23 -0.71)"/><path class="cls-4" d="M174.86,126.7s2.3,10.37-2.78,23.4" transform="translate(-0.23 -0.71)"/><polygon points="185.43 137.08 183.91 139.13 184.87 141.63 186.28 141.13 184.91 143.92 182.06 142.87 183.4 142.31 182.4 139.92 179.51 139.51 179.31 140.85 177.37 138.42 179.87 136.4 179.74 137.91 182.55 138.26 184.23 136.04 183.09 135.12 186.3 134.56 186.8 137.85 185.43 137.08"/><polygon points="162.61 150.67 161.82 152.54 162.97 154.04 161.03 153.95 159.73 155.53 159.28 153.84 157.46 153.03 158.94 151.83 158.99 149.78 160.62 151.06 162.61 150.67"/><polygon points="153.6 150.8 153.62 151.99 154.6 152.53 153.53 152.94 153.21 154.11 152.56 153.3 151.38 153.3 151.9 152.3 151.43 151.18 152.62 151.48 153.6 150.8"/><polygon points="154.2 143.47 154.12 145.04 155.36 145.85 153.91 146.29 153.37 147.79 152.59 146.67 151.05 146.56 151.82 145.28 151.31 143.77 152.85 144.28 154.2 143.47"/><polygon points="153 127.67 151.8 126.05 149.93 126.27 151 124.65 150.31 122.73 151.99 123.21 153.6 122.08 153.88 123.95 155.61 125.03 153.68 125.78 153 127.67"/><polygon points="160.25 120.39 158.95 119.6 157.7 120.29 157.99 118.85 156.96 117.69 158.27 117.55 159.08 116.29 159.81 117.53 161.33 117.8 160.19 118.87 160.25 120.39"/><polygon points="166.02 123.83 164.76 122.95 163.46 123.57 163.84 122.14 162.87 120.92 164.2 120.85 165.08 119.64 165.74 120.92 167.26 121.28 166.05 122.29 166.02 123.83"/><path class="cls-6" d="M128.71,115.85s1.84-18,21.24-18.17" transform="translate(-0.23 -0.71)"/><path class="cls-6" d="M119.74,114.24s2.71-24.88,27.65-24.94" transform="translate(-0.23 -0.71)"/><circle class="cls-7" cx="137.78" cy="72.24" r="7.99"/><circle class="cls-8" cx="162.1" cy="74.62" r="3.63"/><circle class="cls-9" cx="106.45" cy="102.24" r="3.63"/><circle class="cls-10" cx="97.73" cy="161.96" r="3.63"/><circle class="cls-11" cx="121.24" cy="62.63" r="3.63"/><circle class="cls-2" cx="108.51" cy="79.39" r="7.99"/><circle class="cls-12" cx="67.34" cy="157.34" r="12.57"/></svg>