<svg id="Layer_1" data-name="Layer 1" xmlns="http://www.w3.org/2000/svg" viewBox="0 0 255 255"><defs><style>.cls-1{fill:#efefef;}.cls-13,.cls-2,.cls-7,.cls-8{fill:none;stroke-miterlimit:10;stroke-width:2px;}.cls-2{stroke:#231f20;}.cls-3{fill:#ff9903;}.cls-4{fill:#3c6;}.cls-5{fill:#e81a4b;}.cls-6{fill:#ffce00;}.cls-13,.cls-7,.cls-8{stroke:#000;}.cls-7,.cls-8{stroke-linecap:square;}.cls-7{stroke-dasharray:0.98 5.87;}.cls-8{stroke-dasharray:0.98 5.9;}.cls-9{fill:#0083cc;}.cls-10{fill:#873299;}.cls-11{fill:#f37c8d;}.cls-12{fill:#0bd7e0;}</style></defs><title>firefly-jar</title><rect class="cls-1" width="255" height="255"/><line class="cls-2" x1="40.01" y1="140.39" x2="54.86" y2="140.39"/><line class="cls-2" x1="49.23" y1="103.51" x2="62.03" y2="110.68"/><line class="cls-2" x1="192.12" y1="109.15" x2="204.93" y2="101.98"/><line class="cls-2" x1="200.32" y1="138.34" x2="215.68" y2="138.34"/><line class="cls-2" x1="194.17" y1="167.02" x2="205.44" y2="174.19"/><line class="cls-2" x1="62.55" y1="168.56" x2="50.77" y2="175.73"/><circle class="cls-3" cx="166.07" cy="168.63" r="4.61"/><circle class="cls-4" cx="44.62" cy="197.75" r="4.61"/><circle class="cls-5" cx="224.39" cy="168.56" r="7.68"/><circle class="cls-6" cx="129.13" cy="130.14" r="38.41"/><rect class="cls-2" x="78.33" y="53.51" width="99.48" height="22.76" rx="7.41" ry="7.41"/><path class="cls-2" d="M86.38,76.68S75.92,93.11,75.92,100.14v82.34s0,21.93,22.53,21.93h64.62s19.13-3.49,20.35-19.87q.06-.8.06-1.65V101s-6.21-17.67-10.89-25.54" transform="translate(-0.56 -0.71)"/><path class="cls-2" d="M85.69,189.52s44.21-13.24,85.45,0" transform="translate(-0.56 -0.71)"/><circle class="cls-7" cx="100.6" cy="158.25" r="13.08"/><circle class="cls-8" cx="110.11" cy="113.97" r="8.77"/><circle class="cls-9" cx="199.04" cy="82.51" r="4.61"/><circle class="cls-10" cx="206.72" cy="123.23" r="4.61"/><circle class="cls-11" cx="43.08" cy="71.76" r="11.01"/><circle class="cls-12" cx="92.9" cy="93.18" r="5.2"/><path class="cls-13" d="M154.05,128.08s4.72-2.41,8.1-2.22c0,0,10.32-.87,12.14,13.39,0,0,2.69,13.52-6,16.32a19.2,19.2,0,0,1-10.22.75l-.53.39s.53,8.3-5,12.35c0,0-5.6,4.66-15.76-.29,0,0-12.92-5.33-10.84-14,0,0,1.4-6.2,5-9.15l-.12-.8a14.91,14.91,0,0,1-6.89-7.5s-4.17-8.65,7.46-16c0,0,10.89-8.37,17.4-1.29,0,0,3.78,4.4,4.53,7.6Z" transform="translate(-0.56 -0.71)"/><path class="cls-13" d="M154.3,128.47a56.54,56.54,0,0,1,3.83,27.24" transform="translate(-0.56 -0.71)"/><path class="cls-13" d="M131.32,146s8.59,6.6,25.69,10.46" transform="translate(-0.56 -0.71)"/><path class="cls-13" d="M131.35,144.5s6.73-10.16,21.54-16.34" transform="translate(-0.56 -0.71)"/><polygon points="131.34 126.04 134.24 125.67 135.55 122.88 134.01 122.12 137.41 121.02 138.8 124.21 137.28 123.56 136.1 126.28 138.06 129 139.34 128.09 138.87 131.63 135.22 131.17 136.56 130.08 134.61 127.48 131.44 127.86 131.59 129.54 128.57 127.33 130.89 124.3 131.34 126.04"/><polygon points="160.75 134.06 162.91 133.22 163.24 131.07 164.71 132.75 167.05 132.57 166.01 134.29 166.79 136.43 164.62 136.17 162.89 137.76 162.65 135.39 160.75 134.06"/><polygon points="168.02 141.41 168.99 140.43 168.65 139.2 169.85 139.75 171.07 139.09 170.92 140.27 171.85 141.24 170.62 141.61 170.07 142.89 169.37 141.67 168.02 141.41"/><polygon points="161.49 146.74 162.86 145.55 162.53 143.89 164.05 144.74 165.73 143.99 165.42 145.52 166.55 146.89 164.89 147.27 164.04 148.89 163.24 147.22 161.49 146.74"/><polygon points="149.41 160.32 149.02 162.59 150.69 163.97 148.5 164.37 147.46 166.47 146.52 164.7 144.3 164.27 145.63 162.55 145.15 160.26 147.3 161.26 149.41 160.32"/><polygon points="137.62 160.12 138 161.83 139.56 162.31 138.15 163.22 138.01 164.99 136.85 164.02 135.17 164.36 135.61 162.77 134.61 161.3 136.41 161.39 137.62 160.12"/><polygon points="135.86 152.63 136.14 154.36 137.68 154.94 136.21 155.77 135.97 157.54 134.86 156.5 133.15 156.74 133.69 155.17 132.77 153.63 134.57 153.83 135.86 152.63"/></svg>