<svg id="Layer_1" data-name="Layer 1" xmlns="http://www.w3.org/2000/svg" viewBox="0 0 255 255"><defs><style>.cls-1{fill:#efefef;}.cls-11,.cls-2,.cls-4{fill:none;stroke-miterlimit:10;}.cls-2{stroke:#3c6;stroke-width:15px;}.cls-3{fill:#ff9903;}.cls-11,.cls-4{stroke:#000;stroke-width:2px;}.cls-4{stroke-linecap:square;stroke-dasharray:1 5.98;}.cls-5{fill:#f37c8d;}.cls-6{fill:#ffce00;}.cls-7{fill:#873299;}.cls-8{fill:#e81a4b;}.cls-9{fill:#0083cc;}.cls-10{fill:#0bd7e0;}</style></defs><title>hot-potato</title><rect class="cls-1" width="255" height="255"/><circle class="cls-2" cx="129.16" cy="130.79" r="59.77"/><circle class="cls-3" cx="43.7" cy="86.41" r="10.39"/><circle class="cls-4" cx="197.3" cy="37.76" r="10"/><circle class="cls-5" cx="111.26" cy="47.82" r="4.72"/><circle class="cls-6" cx="131.21" cy="216.61" r="4.72"/><circle class="cls-7" cx="214.59" cy="156.65" r="10.39"/><circle class="cls-8" cx="45.43" cy="183.07" r="4.72"/><circle class="cls-9" cx="216.23" cy="177.95" r="4.72"/><circle class="cls-10" cx="29.71" cy="105.95" r="4.72"/><circle class="cls-10" cx="129.18" cy="129.52" r="17.3"/><path class="cls-11" d="M182,131.77s11.52,10.64,14.44,20.21c0,0,12.95,27.76-24.75,47.34,0,0-34.76,21.27-51.41,0,0,0-10.89-12.41-12.51-27.6l-1.61-1.07s-22.49,9.94-39.35-1.26c0,0-18.65-10.79-15.29-44,0,0,1.59-41.28,27.66-44.3,0,0,18.62-2.44,30.51,4.64l2.1-1.15S112.71,70,125.59,57.8c0,0,19.74-20.4,52.07,4.34,0,0,34.32,21.66,21.32,46.95,0,0-8.33,15-16.47,20.31Z" transform="translate(-0.9 -0.71)"/><path class="cls-11" d="M181.17,132.86s-28.89,28.38-71.67,38.42" transform="translate(-0.9 -0.71)"/><path class="cls-11" d="M109,87s-9.55,30.56-2.8,82" transform="translate(-0.9 -0.71)"/><path class="cls-11" d="M113.28,85.55s35,8.3,67.31,43.07" transform="translate(-0.9 -0.71)"/><polygon points="162.2 68.26 166.2 75.92 175.25 76.7 175.8 71.66 182.32 79.97 174.89 87.1 175.14 82.2 166.38 81.72 160.86 89.93 164.67 92.53 154.37 94.85 151.92 84.25 156.32 86.86 161.54 78.8 157.25 70.39 152.75 72.52 155.79 61.89 166.57 65.23 162.2 68.26"/><polygon points="169.96 158.03 174.5 163.17 180.79 161.88 177.64 167.68 180.54 174 174.7 172.87 169.56 177.21 168.08 170.92 161.88 167.76 168.21 164.66 169.96 158.03"/><polygon points="157.02 185.71 160.7 187.4 163.79 185.2 163.47 189.08 166.56 191.8 163.13 192.59 161.4 196.16 159.09 193.12 154.99 192.9 157.66 189.71 157.02 185.71"/><polygon points="135.55 173.03 140.23 175.61 144.51 173.01 143.72 178.1 147.52 181.97 142.94 182.68 140.3 187.22 137.56 182.99 132.18 182.3 136 178.36 135.55 173.03"/><polygon points="85.55 153.37 78.84 154.62 76.72 160.64 73.38 155 66.5 154.25 70.45 149.84 69.36 143.24 75.5 145.18 81.36 141.5 80.78 148.48 85.55 153.37"/><polygon points="74.06 120.46 69.71 123.26 69.96 128.09 66 125.09 60.95 126.53 62.46 122.31 59.81 117.98 64.67 117.59 67.72 113.33 69.32 118.4 74.06 120.46"/><polygon points="93.06 107.92 88.53 110.48 88.49 115.35 84.68 112.1 79.53 113.26 81.29 109.1 78.88 104.61 83.79 104.49 87.11 100.39 88.41 105.58 93.06 107.92"/></svg>