<svg id="Layer_1" data-name="Layer 1" xmlns="http://www.w3.org/2000/svg" viewBox="0 0 255 255"><defs><style>.cls-1,.cls-4{fill:#efefef;}.cls-2{fill:#ffce00;}.cls-3,.cls-5,.cls-6{fill:none;}.cls-3,.cls-4,.cls-5,.cls-6{stroke:#000;stroke-miterlimit:10;stroke-width:2px;}.cls-3,.cls-6{stroke-linecap:square;}.cls-6{stroke-dasharray:0.98 5.88;}.cls-7{fill:#ff9903;}.cls-8{fill:#3c6;}.cls-9{fill:#e81a4b;}.cls-10{fill:#0083cc;}.cls-11{fill:#873299;}.cls-12{fill:#f37c8d;}.cls-13{fill:#0bd7e0;}</style></defs><title>nightlight</title><rect class="cls-1" width="255" height="255"/><circle class="cls-2" cx="127.15" cy="94.19" r="39.08"/><rect class="cls-3" x="92.46" y="107.1" width="72.61" height="118.9"/><path class="cls-3" d="M118.61,172.15h20.17s7.26,3.83,7.66,14.93c0,0-.2,10.09-7.46,14.52H118.82a18.59,18.59,0,0,1-8.27-14.72A17.9,17.9,0,0,1,118.61,172.15Z" transform="translate(-0.23 -0.71)"/><line class="cls-3" x1="121.81" y1="178.5" x2="121.81" y2="187.38"/><line class="cls-3" x1="134.72" y1="179.31" x2="134.72" y2="186.17"/><path class="cls-3" d="M125.67,198.57h5.45s.81-5.45-2.62-5.65C128.5,192.93,125.27,192.52,125.67,198.57Z" transform="translate(-0.23 -0.71)"/><circle class="cls-3" cx="128.47" cy="166" r="3.83"/><line class="cls-3" x1="127.86" y1="162.57" x2="129.48" y2="169.83"/><polygon class="cls-3" points="114.55 151.47 140.57 151.47 140.57 122.63 146.62 116.17 109.71 115.37 114.95 122.03 114.55 151.47"/><line class="cls-3" x1="115.76" y1="122.02" x2="140.57" y2="122.63"/><path class="cls-3" d="M141.21,134A16.66,16.66,0,0,1,146,146.74s-2.22,13.92-7.46,13.92l-20,.61s-7.66-4.44-8.07-13.11c0,0-.61-8.07,4.44-12.91" transform="translate(-0.23 -0.71)"/><path class="cls-4" d="M143.2,90.81s5.4,1,8.06,3.25c0,0,9,5.76,1.6,18.62,0,0-6.26,12.81-15.18,9.66,0,0-5.55-1.61-8.88-5.79h-.68s-4.77,7.16-11.85,7c0,0-7.53.32-12.79-10.11,0,0-7.29-12.48-.17-18.28,0,0,5-4.22,9.88-4.37l.41-.73a15.42,15.42,0,0,1-1-10.49s2-9.73,16.18-8.51c0,0,14.2-.06,15.12,9.85,0,0,.36,6-1,9.09Z" transform="translate(-0.23 -0.71)"/><path class="cls-5" d="M143.16,91.29a58.49,58.49,0,0,1-13.93,24.81" transform="translate(-0.23 -0.71)"/><path class="cls-5" d="M113.24,91.33s2.93,10.81,14.58,24.71" transform="translate(-0.23 -0.71)"/><path class="cls-5" d="M114.22,90.1s11.9-4.14,28,.05" transform="translate(-0.23 -0.71)"/><polygon points="125.58 75.13 128.2 76.63 131.02 75.16 130.23 73.57 133.72 74.8 132.86 78.3 132.02 76.81 129.34 78.31 129.26 81.77 130.87 81.82 128.27 84.44 125.55 81.78 127.34 81.72 127.36 78.36 124.52 76.68 123.59 78.16 122.49 74.45 126.3 73.41 125.58 75.13"/><polygon points="144.75 100.16 147.05 100.82 148.67 99.26 148.83 101.56 150.87 102.88 148.94 103.64 148.24 105.89 146.61 104.31 144.19 104.55 145.47 102.44 144.75 100.16"/><polygon points="146.13 110.76 147.54 110.56 148.03 109.33 148.67 110.54 150.09 110.76 149.23 111.64 149.39 113.02 148.14 112.56 146.88 113.26 147.07 111.82 146.13 110.76"/><polygon points="137.41 111.06 139.28 110.94 140.06 109.36 140.78 111.01 142.63 111.44 141.41 112.51 141.48 114.35 139.88 113.61 138.16 114.42 138.55 112.54 137.41 111.06"/><polygon points="118.96 114.65 117.21 116.28 117.72 118.46 115.68 117.42 113.5 118.5 113.84 116.45 112.28 114.71 114.45 114.13 115.49 111.94 116.63 114.11 118.96 114.65"/><polygon points="109.38 107.1 108.63 108.75 109.61 110.13 107.87 109.98 106.66 111.36 106.31 109.83 104.71 109.05 106.07 108.02 106.17 106.19 107.59 107.39 109.38 107.1"/><polygon points="112.63 99.83 111.77 101.44 112.68 102.88 110.94 102.64 109.64 103.95 109.38 102.39 107.82 101.52 109.25 100.56 109.46 98.73 110.82 100.01 112.63 99.83"/><line class="cls-3" x1="143.55" y1="45.04" x2="149.11" y2="30.13"/><line class="cls-3" x1="165.33" y1="61.85" x2="178.12" y2="52.97"/><line class="cls-3" x1="155.83" y1="52.23" x2="165.34" y2="39.91"/><circle class="cls-6" cx="89.79" cy="46.42" r="16.38"/><circle class="cls-7" cx="61.69" cy="57.65" r="4.18"/><circle class="cls-8" cx="74.77" cy="103.04" r="4.18"/><circle class="cls-9" cx="176.31" cy="75.23" r="6.97"/><circle class="cls-10" cx="132.14" cy="30.19" r="4.18"/><circle class="cls-11" cx="59.98" cy="98.34" r="4.18"/><circle class="cls-12" cx="71.64" cy="78.75" r="10"/><circle class="cls-13" cx="178.29" cy="97.55" r="4.73"/></svg>