<svg id="Layer_1" data-name="Layer 1" xmlns="http://www.w3.org/2000/svg" xmlns:xlink="http://www.w3.org/1999/xlink" viewBox="0 0 255 255"><defs><style>.cls-1,.cls-11,.cls-13{fill:none;}.cls-2{fill:#efefef;}.cls-3{fill:#0bd7e0;}.cls-4{clip-path:url(#clip-path);}.cls-5{fill:#e81a4b;}.cls-6{fill:#ff9903;}.cls-7{fill:#ffce00;}.cls-8{fill:#3c6;}.cls-9{fill:#0083cc;}.cls-10{fill:#873299;}.cls-11,.cls-13{stroke:#000;stroke-miterlimit:10;stroke-width:2px;}.cls-12{fill:#f37c8d;}.cls-13{stroke-linecap:square;stroke-dasharray:1.02 6.13;}</style><clipPath id="clip-path"><rect class="cls-1" x="68.94" y="132.12" width="140.9" height="70.45"/></clipPath></defs><title>rainbow-flash</title><rect class="cls-2" width="255" height="255"/><circle class="cls-3" cx="170.62" cy="91.43" r="15.64"/><g class="cls-4"><circle class="cls-5" cx="139.39" cy="202.57" r="65.03"/><circle class="cls-6" cx="139.39" cy="202.57" r="54.19"/><circle class="cls-7" cx="139.39" cy="202.57" r="43.35"/><circle class="cls-8" cx="139.39" cy="202.57" r="32.51"/><circle class="cls-9" cx="139.39" cy="202.57" r="21.68"/><circle class="cls-10" cx="139.39" cy="202.57" r="10.84"/></g><line class="cls-11" x1="213.65" y1="179.61" x2="225.1" y2="179.61"/><line class="cls-11" x1="207.19" y1="157.59" x2="216.88" y2="152.02"/><line class="cls-11" x1="182.54" y1="134.4" x2="188.11" y2="125.01"/><line class="cls-11" x1="66" y1="179.61" x2="54.56" y2="179.61"/><line class="cls-11" x1="72.46" y1="157.59" x2="62.78" y2="152.02"/><line class="cls-11" x1="95.94" y1="135.58" x2="90.37" y2="126.19"/><line class="cls-11" x1="138.51" y1="126.77" x2="138.51" y2="115.91"/><circle class="cls-8" cx="211.44" cy="131.47" r="4.54"/><circle class="cls-12" cx="29.64" cy="173.43" r="4.54"/><circle class="cls-13" cx="87.76" cy="93.28" r="14.79"/><circle class="cls-5" cx="68.18" cy="123.95" r="6.3"/><path class="cls-11" d="M193.63,78.67s3.67,2.34,4.94,4.8c0,0,4.9,6.94-4.42,14.14,0,0-8.44,7.52-14,2.53a15.74,15.74,0,0,1-4.78-6.92l-.49-.21s-5.65,3.82-10.8,1.6c0,0-5.62-2-6.35-11.26,0,0-1.6-11.34,5.36-13.46,0,0,5-1.59,8.56-.24l.52-.42a12.23,12.23,0,0,1,2.44-8S179,54.73,189,59.88c0,0,10.44,4.22,8.14,11.76,0,0-1.53,4.5-3.49,6.36Z"/><path class="cls-11" d="M193.45,79a46.36,46.36,0,0,1-17.67,14"/><path class="cls-11" d="M171.5,70.06s-1.1,8.81,3.28,22.51"/><path class="cls-11" d="M172.59,69.45s10,.54,20.5,8.43"/><polygon points="185.37 62.47 186.84 64.36 189.35 64.13 189.25 62.72 191.44 64.67 189.76 66.98 189.59 65.63 187.17 65.93 186.07 68.45 187.24 68.97 184.54 70.11 183.35 67.34 184.68 67.83 185.71 65.38 184.12 63.29 183 64.1 183.3 61.04 186.41 61.42 185.37 62.47"/><polygon points="191.92 86.59 193.41 87.77 195.06 87.1 194.49 88.84 195.59 90.42 193.94 90.4 192.75 91.84 192.04 90.2 190.19 89.64 191.76 88.48 191.92 86.59"/><polygon points="189.75 94.78 190.84 95.06 191.57 94.31 191.68 95.38 192.65 95.97 191.76 96.36 191.46 97.42 190.68 96.7 189.55 96.84 190.12 95.84 189.75 94.78"/><polygon points="183.26 92.38 184.67 92.85 185.71 91.93 185.75 93.36 186.97 94.23 185.76 94.65 185.26 96.02 184.3 95 182.8 95.08 183.65 93.81 183.26 92.38"/><polygon points="168.65 89.48 166.88 90.15 166.6 91.9 165.41 90.53 163.49 90.66 164.35 89.26 163.73 87.51 165.5 87.74 166.92 86.45 167.1 88.38 168.65 89.48"/><polygon points="163.89 81.06 162.84 82.04 163.14 83.35 161.91 82.73 160.61 83.37 160.81 82.14 159.87 81.09 161.18 80.75 161.8 79.43 162.49 80.74 163.89 81.06"/><polygon points="168.45 76.7 167.34 77.63 167.57 78.96 166.37 78.26 165.02 78.83 165.3 77.61 164.42 76.5 165.75 76.23 166.46 74.94 167.07 76.3 168.45 76.7"/></svg>