<svg id="Layer_1" data-name="Layer 1" xmlns="http://www.w3.org/2000/svg" viewBox="0 0 255 255"><defs><style>.cls-1{fill:#efefef;}.cls-2{fill:#e81a4b;}.cls-3{fill:#ffce00;}.cls-4{fill:#f37c8d;}.cls-5{fill:#3c6;}.cls-6,.cls-8,.cls-9{fill:none;stroke:#000;stroke-miterlimit:10;stroke-width:2px;}.cls-6,.cls-8{stroke-linecap:square;}.cls-6{stroke-dasharray:0.98 5.88;}.cls-7{fill:#0bd7e0;}.cls-10{fill:#873299;}.cls-11{fill:#0083cc;}.cls-12{fill:#ff9903;}</style></defs><title>red-light-green-light</title><rect class="cls-1" width="255" height="255"/><circle class="cls-2" cx="138.19" cy="105.86" r="16.29"/><circle class="cls-3" cx="57.94" cy="149.44" r="30.96"/><circle class="cls-4" cx="218.02" cy="184.06" r="8.96"/><circle class="cls-5" cx="122.98" cy="193.98" r="16.29"/><circle class="cls-6" cx="66.29" cy="84.47" r="10.93"/><circle class="cls-7" cx="193.57" cy="53.82" r="22.29"/><circle class="cls-5" cx="94.74" cy="67.3" r="5.16"/><circle class="cls-8" cx="131.29" cy="191.92" r="15.66"/><circle class="cls-8" cx="131.29" cy="106" r="15.66"/><rect class="cls-8" x="94.48" y="78.45" width="74.08" height="143.2" rx="12" ry="12" transform="translate(262.81 299.39) rotate(-180)"/><path class="cls-9" d="M119.71,147.08s-2.25-3.17-2.47-5.65c0,0-1.72-7.4,8.43-10.22,0,0,9.53-3.38,12.48,2.64a14.08,14.08,0,0,1,1.62,7.34l.34.34s6-1.26,9.49,2.32c0,0,4,3.57,1.46,11.46,0,0-2.5,9.94-9,9.34,0,0-4.65-.36-7.17-2.69l-.57.17a10.94,10.94,0,0,1-4.71,5.79s-5.84,3.94-12.42-3.72c0,0-7.22-7-2.77-12.49,0,0,2.79-3.21,5-4.09Z" transform="translate(-0.23 -0.71)"/><path class="cls-9" d="M120,146.86a41.47,41.47,0,0,1,19.37-5.66" transform="translate(-0.23 -0.71)"/><path class="cls-9" d="M135.14,161.68s3.88-6.93,4.88-19.75" transform="translate(-0.23 -0.71)"/><path class="cls-9" d="M134,161.82S126,158,119.9,147.92" transform="translate(-0.23 -0.71)"/><polygon points="120.86 162.59 120.28 160.52 118.12 159.87 117.73 161.07 116.57 158.72 118.74 157.37 118.43 158.54 120.53 159.11 122.29 157.4 121.5 156.57 124.12 156.53 124.17 159.23 123.24 158.37 121.56 160.06 122.17 162.32 123.37 162.04 122.09 164.46 119.64 163.1 120.86 162.59"/><polygon points="123.57 140.4 122.73 138.92 121.14 138.91 122.2 137.66 121.82 135.98 123.18 136.55 124.65 135.76 124.69 137.37 126.03 138.45 124.34 138.88 123.57 140.4"/><polygon points="128.13 134.34 127.32 133.74 126.46 134.12 126.74 133.19 126.13 132.37 127 132.36 127.6 131.58 128.01 132.44 128.99 132.7 128.18 133.34 128.13 134.34"/><polygon points="132.69 138.52 131.69 137.65 130.52 138.06 130.97 136.87 130.25 135.73 131.4 135.8 132.27 134.83 132.72 136 133.99 136.44 132.86 137.2 132.69 138.52"/><polygon points="143.83 145.85 145.52 145.89 146.34 144.54 146.86 146.08 148.49 146.62 147.31 147.48 147.24 149.14 145.85 148.36 144.24 148.95 144.73 147.28 143.83 145.85"/><polygon points="144.93 154.43 146.13 153.97 146.32 152.79 147.12 153.72 148.42 153.63 147.84 154.58 148.26 155.76 147.06 155.61 146.1 156.49 145.97 155.17 144.93 154.43"/><polygon points="139.68 156.5 140.91 156.11 141.16 154.93 141.92 155.92 143.23 155.9 142.59 156.82 142.95 158.03 141.75 157.81 140.73 158.63 140.68 157.31 139.68 156.5"/><line class="cls-8" x1="76.68" y1="166.34" x2="60.64" y2="171.3"/><line class="cls-8" x1="76.68" y1="137.31" x2="61.02" y2="132.35"/><line class="cls-8" x1="74.77" y1="151.44" x2="58.35" y2="151.44"/><line class="cls-8" x1="186.66" y1="137.31" x2="202.7" y2="132.35"/><line class="cls-8" x1="186.66" y1="166.34" x2="202.32" y2="171.3"/><line class="cls-8" x1="188.57" y1="152.21" x2="204.99" y2="152.21"/><circle class="cls-10" cx="221.81" cy="123.64" r="5.16"/><circle class="cls-11" cx="70" cy="203.11" r="5.16"/><circle class="cls-12" cx="193.67" cy="107.12" r="5.16"/></svg>