<svg id="Layer_1" data-name="Layer 1" xmlns="http://www.w3.org/2000/svg" viewBox="0 0 255 255"><defs><style>.cls-1{fill:#efefef;}.cls-2,.cls-3,.cls-5{fill:none;stroke-miterlimit:10;}.cls-2{stroke:#ff9903;stroke-width:15px;}.cls-3,.cls-5{stroke:#000;stroke-width:2px;}.cls-4{fill:#ffce00;}.cls-5{stroke-linecap:square;stroke-dasharray:0.99 5.96;}.cls-6{fill:#f37c8d;}.cls-7{fill:#3c6;}.cls-8{fill:#873299;}.cls-9{fill:#e81a4b;}.cls-10{fill:#0083cc;}.cls-11{fill:#0bd7e0;}</style></defs><title>rock-paper-scissors</title><rect class="cls-1" width="255" height="255"/><circle class="cls-2" cx="123.66" cy="127.3" r="52.9"/><path class="cls-3" d="M72.09,43.68,85.68,57.43l2.16-1.85S99.43,55,103,58.82l7,7.26s3.4,5.1.15,8.34l-8.19,8.65-4.48-4.33a5.3,5.3,0,0,1,1.24-6.64l2.94-2.78s-10.35,7.88-15.6.46" transform="translate(-0.9 -0.71)"/><line class="cls-3" x1="78.14" y1="61.51" x2="71.96" y2="68"/><path class="cls-3" d="M54.78,60.52,69.51,74.71s-1.16,5.44,5.63,13.2l7.61,7.75" transform="translate(-0.9 -0.71)"/><rect class="cls-3" x="84.44" y="87.94" width="8.85" height="15.02" rx="3.84" ry="3.84" transform="translate(218.3 99.4) rotate(135)"/><rect class="cls-3" x="92.11" y="82.27" width="8.41" height="16.88" rx="3.65" ry="3.65" transform="translate(227.67 86.02) rotate(135)"/><rect class="cls-3" x="84.44" y="87.94" width="8.85" height="15.02" rx="3.84" ry="3.84" transform="translate(218.3 99.4) rotate(135)"/><path class="cls-3" d="M97.27,78.44s-3.63.15-3,4.63" transform="translate(-0.9 -0.71)"/><path class="cls-3" d="M105.53,79.21l6.41,6.87a4.8,4.8,0,0,1-.93,5.64,7,7,0,0,1-7,2.09" transform="translate(-0.9 -0.71)"/><path class="cls-3" d="M111.4,69.95l8.81,9.19s2.16,3.32-.08,5.79c0,0-3.55,4-7.34,2.78" transform="translate(-0.9 -0.71)"/><path class="cls-3" d="M215.56,158.52l-15.43-10.33a28.19,28.19,0,0,1-20.77-7.95l-19.56.8s-4.19-1.17-4-4.54a3.94,3.94,0,0,1,3.5-4.37l17.84-.75L186,113.13,173.11,99.25s-2.61-3.4-.12-5.82c0,0,3.33-2.91,6.4.39l18.16,19.55" transform="translate(-0.9 -0.71)"/><line class="cls-3" x1="202.93" y1="141.81" x2="208.01" y2="134.43"/><path class="cls-3" d="M228.6,137.95l-16.31-10s2.84-3.75-2.26-14.52L206.22,95.3l-6,1.27a4.43,4.43,0,0,0-3.1,5.54l1.06,5.78a20.08,20.08,0,0,1-1.49,8.68s-5.5,7.63,4.23,14.11" transform="translate(-0.9 -0.71)"/><path class="cls-3" d="M174.64,131.29l-17.52-6.74s-2.69-2.28-1.2-5a3.8,3.8,0,0,1,4.37-2.5l20.3,6.47" transform="translate(-0.9 -0.71)"/><path class="cls-3" d="M185.46,113.71l-21.67-13s-4.19-1.17-5.2,1.57c0,0-2.48,3.21.27,5.78l19.65,14.65" transform="translate(-0.9 -0.71)"/><circle class="cls-4" cx="36.9" cy="124.5" r="9.2"/><path class="cls-3" d="M45.92,195.64l13.75-13.75s-2.78-4.17-1.7-8.81c0,0,.15-5.56,2.32-7.57l8.65-8.19s3.86-2.63,7.26,0l9.11,8.5s-3.71,5.72-7.72,5.25c0,0-2.78-.46-5.72-4.33,0,0,7.11,9,.31,14.83" transform="translate(-0.9 -0.71)"/><line class="cls-3" x1="63.25" y1="187.67" x2="70.05" y2="194.47"/><path class="cls-3" d="M62.76,212.94,76.35,199c.78.38,6.79,1.78,20.55-13.28" transform="translate(-0.9 -0.71)"/><path class="cls-3" d="M82.22,163,98.75,144.2c2.94-3.24-.77-7.11-.77-7.11-2.32-2.32-6.64,0-6.64,0L74.65,156.56" transform="translate(-0.9 -0.71)"/><path class="cls-3" d="M98,165.21c.46-.15,11-7.72,11-7.72a5.69,5.69,0,0,0,2-7.11s-2.16-4.48-6.18-2l-20.39,12.2" transform="translate(-0.9 -0.71)"/><rect class="cls-3" x="92.96" y="171.82" width="8.85" height="15.02" rx="3.84" ry="3.84" transform="translate(154.43 -17.04) rotate(45)"/><rect class="cls-3" x="88.42" y="163.43" width="8.41" height="16.88" rx="3.65" ry="3.65" transform="translate(147.76 -15.87) rotate(45)"/><rect class="cls-3" x="92.96" y="171.82" width="8.85" height="15.02" rx="3.84" ry="3.84" transform="translate(154.43 -17.04) rotate(45)"/><circle class="cls-5" cx="179.74" cy="187.39" r="8.85"/><circle class="cls-6" cx="193.02" cy="55.74" r="4.18"/><circle class="cls-7" cx="159.42" cy="195" r="4.18"/><circle class="cls-8" cx="161.26" cy="53.08" r="9.2"/><circle class="cls-9" cx="50.72" cy="155.15" r="4.18"/><circle class="cls-10" cx="179.54" cy="78.42" r="4.18"/><circle class="cls-11" cx="34.5" cy="146.39" r="4.18"/><path class="cls-3" d="M123.13,114.8s1.28-3.23,3-4.6c0,0,4.71-4.89,11.77,1.35,0,0,7.18,5.5,4.1,10.64a12.59,12.59,0,0,1-4.71,4.79l-.09.42s3.85,3.86,2.88,8.24c0,0-.74,4.72-7.89,6.67,0,0-8.67,3-11.38-2.19,0,0-2-3.66-1.47-6.69l-.4-.34a9.78,9.78,0,0,1-6.64-.72s-5.8-2.46-3.26-11.12c0,0,1.74-8.83,8-8.16,0,0,3.77.53,5.52,1.79Z" transform="translate(-0.9 -0.71)"/><path class="cls-3" d="M123.43,114.89a37.08,37.08,0,0,1,13.67,11.77" transform="translate(-0.9 -0.71)"/><path class="cls-3" d="M119.69,133.48s7.09-.46,17.19-6" transform="translate(-0.9 -0.71)"/><path class="cls-3" d="M119,132.72s-1.08-7.92,3.54-17.37" transform="translate(-0.9 -0.71)"/><polygon points="110.75 123.02 112.01 121.58 111.45 119.64 110.36 119.93 111.56 117.92 113.63 118.89 112.6 119.23 113.2 121.08 115.34 121.57 115.57 120.57 116.87 122.52 114.87 123.87 115.06 122.75 112.98 122.32 111.58 123.87 112.38 124.64 109.94 124.85 109.77 122.36 110.75 123.02"/><polygon points="128.71 114.25 129.41 112.9 128.64 111.7 130.09 111.89 131.17 110.79 131.4 112.09 132.71 112.8 131.52 113.61 131.36 115.15 130.22 114.09 128.71 114.25"/><polygon points="135.47 114.72 135.52 113.83 134.82 113.36 135.65 113.12 135.97 112.26 136.4 112.91 137.28 112.98 136.84 113.7 137.12 114.57 136.24 114.27 135.47 114.72"/><polygon points="134.56 120.18 134.72 119 133.84 118.32 134.95 118.08 135.45 116.99 135.96 117.88 137.11 118.06 136.46 118.97 136.74 120.14 135.62 119.66 134.56 120.18"/><polygon points="134.47 132.09 135.27 133.38 136.69 133.34 135.78 134.48 136.18 135.97 134.95 135.5 133.67 136.25 133.58 134.83 132.35 133.91 133.84 133.47 134.47 132.09"/><polygon points="128.58 137.1 129.51 137.77 130.49 137.34 130.18 138.4 130.88 139.33 129.89 139.35 129.21 140.25 128.74 139.27 127.61 138.98 128.53 138.24 128.58 137.1"/><polygon points="124.47 134.17 125.36 134.9 126.37 134.52 126 135.56 126.65 136.54 125.65 136.51 124.92 137.36 124.5 136.36 123.39 136 124.36 135.31 124.47 134.17"/></svg>