<svg id="Layer_1" data-name="Layer 1" xmlns="http://www.w3.org/2000/svg" viewBox="0 0 255 255"><defs><style>.cls-1{fill:#efefef;}.cls-10,.cls-12,.cls-2{fill:none;stroke:#000;stroke-miterlimit:10;stroke-width:2px;}.cls-12,.cls-2{stroke-linecap:square;}.cls-3{fill:#0083cc;}.cls-4{fill:#f37c8d;}.cls-5{fill:#0bd7e0;}.cls-6{fill:#ff9903;}.cls-7{fill:#873299;}.cls-8{fill:#ffce00;}.cls-9{fill:#e81a4b;}.cls-11{fill:#3c6;}.cls-12{stroke-dasharray:1.02 6.12;}</style></defs><title>simone</title><rect class="cls-1" width="255" height="255"/><line class="cls-2" x1="196.03" y1="119.64" x2="208.29" y2="114.63"/><line class="cls-2" x1="198.02" y1="142.44" x2="210.67" y2="145.27"/><line class="cls-2" x1="198.55" y1="131.21" x2="211.46" y2="130.08"/><circle class="cls-3" cx="49.11" cy="171.36" r="7.07"/><circle class="cls-4" cx="145.34" cy="68.13" r="4.06"/><circle class="cls-5" cx="216.94" cy="105.79" r="3.38"/><circle class="cls-6" cx="125.01" cy="64.71" r="8.08"/><circle class="cls-7" cx="61.92" cy="113.26" r="5.8"/><path class="cls-3" d="M143.52,123.18l13-38.75s29,7.32,36.86,45c0,0,6.5,38.21-13.28,60.16l-26.83-32S166.28,134.29,143.52,123.18Z" transform="translate(-0.56 -0.71)"/><path class="cls-8" d="M107.2,143.23l-40.92,5.42s-1.36-33.6,17.07-52c0,0,26.56-25.47,60.7-16.26L132.14,118.3s-22.76,1.9-24.93,23.85" transform="translate(-0.56 -0.71)"/><path class="cls-9" d="M66,160l42.55-6.23s10.84,24.12,33.88,10.84L166.82,198s-23,19.24-55.56,9.49C111.27,207.46,75.22,196.62,66,160Z" transform="translate(-0.56 -0.71)"/><circle class="cls-10" cx="129.92" cy="143.16" r="57.85"/><line class="cls-10" x1="117.78" y1="146.55" x2="73.28" y2="152.17"/><line class="cls-10" x1="148.14" y1="88.79" x2="135.01" y2="129.92"/><line class="cls-10" x1="167.16" y1="186.83" x2="141.32" y2="151.89"/><path class="cls-10" d="M135.36,131.89s3.31-2.26,5.86-2.45c0,0,7.65-1.64,10.38,8.86,0,0,3.32,9.87-2.94,12.81a14.5,14.5,0,0,1-7.59,1.54l-.36.34s1.19,6.17-2.56,9.73c0,0-3.75,4-11.83,1.3,0,0-10.19-2.75-9.46-9.42,0,0,.45-4.78,2.9-7.34l-.17-.59a11.27,11.27,0,0,1-5.88-5s-4-6.08,4-12.72c0,0,7.35-7.32,12.91-2.64,0,0,3.26,2.93,4.12,5.26Z" transform="translate(-0.56 -0.71)"/><path class="cls-10" d="M135.58,132.16a42.72,42.72,0,0,1,5.49,20" transform="translate(-0.56 -0.71)"/><path class="cls-10" d="M120,147.52s7.07,4.12,20.26,5.37" transform="translate(-0.56 -0.71)"/><path class="cls-10" d="M119.93,146.38s4.07-8.26,14.57-14.32" transform="translate(-0.56 -0.71)"/><polygon points="118.07 132.31 120.21 131.75 120.92 129.54 119.69 129.12 122.13 127.97 123.49 130.22 122.28 129.88 121.66 132.04 123.39 133.88 124.26 133.08 124.25 135.78 121.47 135.78 122.37 134.84 120.66 133.08 118.32 133.66 118.59 134.91 116.12 133.54 117.56 131.05 118.07 132.31"/><polygon points="140.88 135.5 142.42 134.66 142.46 133.02 143.72 134.13 145.46 133.77 144.84 135.16 145.63 136.69 143.98 136.7 142.84 138.06 142.43 136.31 140.88 135.5"/><polygon points="147.03 140.3 147.67 139.48 147.29 138.58 148.24 138.88 149.1 138.27 149.1 139.16 149.89 139.8 149 140.2 148.71 141.21 148.07 140.37 147.03 140.3"/><polygon points="142.65 144.92 143.56 143.9 143.16 142.69 144.38 143.18 145.56 142.45 145.48 143.63 146.46 144.55 145.25 144.99 144.77 146.29 144.01 145.11 142.65 144.92"/><polygon points="134.9 156.26 134.83 158 136.21 158.87 134.62 159.38 134.04 161.06 133.16 159.82 131.46 159.71 132.29 158.3 131.71 156.63 133.41 157.17 134.9 156.26"/><polygon points="126.05 157.25 126.5 158.49 127.72 158.7 126.74 159.52 126.82 160.86 125.85 160.24 124.62 160.66 124.8 159.42 123.91 158.42 125.27 158.31 126.05 157.25"/><polygon points="124.01 151.8 124.39 153.07 125.6 153.36 124.57 154.12 124.57 155.47 123.63 154.8 122.38 155.14 122.63 153.91 121.8 152.85 123.16 152.82 124.01 151.8"/><circle class="cls-11" cx="211.2" cy="165.56" r="13.25"/><circle class="cls-5" cx="42.58" cy="139.41" r="18.13"/><circle class="cls-12" cx="197.5" cy="91.58" r="13.63"/></svg>