<svg id="Layer_1" data-name="Layer 1" xmlns="http://www.w3.org/2000/svg" viewBox="0 0 255 255"><defs><style>.cls-1{fill:#efefef;}.cls-2{fill:#f37c8d;}.cls-3{fill:#ff9903;}.cls-4,.cls-5{fill:none;stroke:#000;stroke-miterlimit:10;stroke-width:2px;}.cls-5{stroke-linecap:square;stroke-dasharray:1.03 6.15;}.cls-6{fill:#0bd7e0;}.cls-7{fill:#3c6;}.cls-8{fill:#0083cc;}.cls-9{fill:#e81a4b;}.cls-10{fill:#873299;}.cls-11{fill:#ffce00;}</style></defs><title>team-spirit</title><rect class="cls-1" width="255" height="255"/><circle class="cls-2" cx="78.28" cy="108.99" r="24.92"/><path d="M68.12,101.7c.58-.87-2.67-2.36-3.36-2.91a20.7,20.7,0,0,1-4.09-4.31,21.13,21.13,0,0,1-3.74-10.34c-.13-1.43-2.38-1.44-2.25,0a23.42,23.42,0,0,0,4.77,12.45c2,2.56,6,6.78,9.52,7a1.13,1.13,0,0,0,1-.56l.13-.2c.8-1.21-1.15-2.34-1.94-1.14Z" transform="translate(-0.23 -0.71)"/><path d="M72.75,98.68a44.26,44.26,0,0,1-8.39-9.13c-2-3-3-6.65-5-9.57l-.4,1.54.15-.09L57.55,81l0,.08c.56,1.33,2.5.18,1.94-1.14l0-.08a1.14,1.14,0,0,0-1.54-.4l-.15.09a1.14,1.14,0,0,0-.4,1.54c2.23,3.28,3.34,7.26,5.71,10.56a46.62,46.62,0,0,0,8,8.59c1.1.92,2.7-.66,1.59-1.59Z" transform="translate(-0.23 -0.71)"/><path d="M74.75,97.15a27,27,0,0,1-5.8-7.79c-1.25-2.58-1.35-5.65-2.62-8.11a1.13,1.13,0,0,0-1.27-.52l-.23.08A1.15,1.15,0,0,0,64,81.9v.2c.09,1.44,2.34,1.45,2.25,0v-.2L65.42,83l.23-.08-1.27-.52c.73,1.42.8,3.53,1.34,5.06a27.88,27.88,0,0,0,7.44,11.3c1.05,1,2.64-.59,1.59-1.59Z" transform="translate(-0.23 -0.71)"/><path d="M73.75,95.75A35,35,0,0,1,72.92,85c.11-2.39.89-5.52.22-7.82a1.16,1.16,0,0,0-1.38-.79l-.22,0a1.14,1.14,0,0,0-.83,1.08l0,.18c-.12,1.44,2.13,1.43,2.25,0l0-.18-.83,1.08.22,0L71,77.79c.81,2.76-.36,7-.39,9.85a32.18,32.18,0,0,0,1,8.71,1.13,1.13,0,0,0,2.17-.6Z" transform="translate(-0.23 -0.71)"/><path d="M74.82,99.14a19.25,19.25,0,0,1,.86-8.56c.72-2.07,1.65-3.9,1.87-6.1.15-1.44-2.1-1.43-2.25,0-.27,2.64-1.79,5-2.38,7.54a21.28,21.28,0,0,0-.36,7.13c.15,1.42,2.41,1.44,2.25,0Z" transform="translate(-0.23 -0.71)"/><path d="M76.52,98.37a29.22,29.22,0,0,1,7.25-20.08c.95-1.09-.64-2.69-1.59-1.59a31.65,31.65,0,0,0-7.91,21.68,1.13,1.13,0,0,0,2.25,0Z" transform="translate(-0.23 -0.71)"/><path d="M78.13,102.17c.94-2.58,3.3-4.28,4.21-6.94a79,79,0,0,0,2.11-9.51c.29-1.41-1.87-2-2.17-.6-.65,3.11-1,6.52-2.11,9.51-1,2.61-3.25,4.32-4.21,6.94-.5,1.36,1.68,1.95,2.17.6Z" transform="translate(-0.23 -0.71)"/><path d="M73.18,102.56c10.25,4.1,17.56-6,19.19-14.84.26-1.42-1.91-2-2.17-.6-1.42,7.7-7.32,16.91-16.43,13.27-1.34-.54-1.93,1.64-.6,2.17Z" transform="translate(-0.23 -0.71)"/><path d="M73.59,105.29c2.76,2.73,6.36,2.68,10,1.79a24.28,24.28,0,0,0,6.37-2.58c2.87-1.67,5.49-5,8.93-5.24,1.43-.11,1.45-2.37,0-2.25-2.7.22-4.41,1.44-6.53,3-4,3-12.39,8.36-17.16,3.64a1.13,1.13,0,0,0-1.59,1.59Z" transform="translate(-0.23 -0.71)"/><path d="M99.09,103.1c-7.2-1.92-17.8,11-23.4,1.27a1.13,1.13,0,0,0-1.94,1.14,8.39,8.39,0,0,0,8.6,4.44,27.08,27.08,0,0,0,6.59-1.61c2.85-1,6.6-3.86,9.56-3.07a1.13,1.13,0,0,0,.6-2.17Z" transform="translate(-0.23 -0.71)"/><path d="M71.61,101.92c2.2,8.26,9.45,32.27,22.54,23.07,1.18-.83.05-2.78-1.14-1.94-11.24,7.9-17.36-14.7-19.24-21.73a1.13,1.13,0,0,0-2.17.6Z" transform="translate(-0.23 -0.71)"/><path d="M96.11,120.46a25.67,25.67,0,0,1-16.32-12,1.13,1.13,0,0,0-1.94,1.14,27.94,27.94,0,0,0,17.66,13.05c1.41.34,2-1.83.6-2.17Z" transform="translate(-0.23 -0.71)"/><path d="M97.37,112.52c-.21.31-2.13-.18-2.48-.27a9.36,9.36,0,0,1-2.53-1.07,28.15,28.15,0,0,0-4-2.28c-1.35-.53-1.93,1.64-.6,2.17,2.44,1,4.22,2.85,6.86,3.42,1.6.35,3.67.71,4.69-.84.8-1.21-1.15-2.34-1.94-1.14Z" transform="translate(-0.23 -0.71)"/><path d="M84.78,129.66c-5.54-1.9-11.5-3.93-13.22-10.19-1.46-5.33-.82-11.25.36-16.56.31-1.41-1.86-2-2.17-.6-1.39,6.25-2.31,13.9.4,19.95,2.53,5.65,8.57,7.69,14,9.56,1.37.47,2-1.7.6-2.17Z" transform="translate(-0.23 -0.71)"/><path d="M72.86,115.36C67.61,120,62,126,64.54,133.6c.46,1.36,2.64.78,2.17-.6-2.32-6.81,3.12-12,7.74-16,1.09-1-.51-2.55-1.59-1.59Z" transform="translate(-0.23 -0.71)"/><path d="M71.7,109.38a52.65,52.65,0,0,0-7.61,8.14c-2.71,3.63-4.72,8.51-9.65,9.41-1.42.26-.82,2.43.6,2.17,3.79-.69,6.13-3.35,8.22-6.4a60.57,60.57,0,0,1,10-11.72c1.09-1-.5-2.54-1.59-1.59Z" transform="translate(-0.23 -0.71)"/><path d="M72,106.32c-2.77,2.52-5.71,5.77-9,7.59-4.34,2.42-9.75,1.57-14.36.53-1.41-.32-2,1.85-.6,2.17,4.39,1,9.55,1.9,13.9.34s8.22-6,11.62-9c1.07-1-.52-2.56-1.59-1.59Z" transform="translate(-0.23 -0.71)"/><path d="M61.73,113.31l-.07.25.79-.79c-1.16.38-5-1.78-5.89-2.19-1.72-.78-3.39-1.64-5-2.55-1.27-.7-2.4,1.24-1.14,1.94a67.81,67.81,0,0,0,8.93,4.17c1.32.5,4,1.91,4.59-.22a1.13,1.13,0,0,0-2.17-.6Z" transform="translate(-0.23 -0.71)"/><path d="M68,103.15c-.78,3.91-10.13,4.56-12.73,3.76-3.48-1.07-6.44-4.63-9-7.15-1-1-2.63.58-1.59,1.59,3.92,3.84,7.63,8.5,13.54,8.25,3.71-.16,11.11-1.54,12-5.85.28-1.41-1.89-2-2.17-.6Z" transform="translate(-0.23 -0.71)"/><path d="M68.6,107.25A53.55,53.55,0,0,0,45.42,92.83c-1.39-.43-2,1.74-.6,2.17A51.21,51.21,0,0,1,67,108.85c1,1.05,2.59-.54,1.59-1.59Z" transform="translate(-0.23 -0.71)"/><path d="M65.11,98.34a47.85,47.85,0,0,0-4.19-2.75c-1.24-.69-2.63-1.16-3.8-2-1.9-1.32-3.15-2.87-5.66-2.28-1.41.33-.81,2.5.6,2.17,1.64-.39,4.36,2.35,5.85,3.08a44.25,44.25,0,0,1,6.06,3.7c1.18.84,2.31-1.11,1.14-1.94Z" transform="translate(-0.23 -0.71)"/><path d="M76.94,113.12c6.41,5.32,14.73.69,21.41-1.78,1.35-.5.76-2.68-.6-2.17C92.17,111.24,84,116,78.53,111.53c-1.11-.92-2.71.67-1.59,1.59Z" transform="translate(-0.23 -0.71)"/><path d="M74.31,79.5a81.49,81.49,0,0,0-6.44,14.28c-.47,1.37,1.7,2,2.17.6a78.39,78.39,0,0,1,6.21-13.74,1.13,1.13,0,0,0-1.94-1.14Z" transform="translate(-0.23 -0.71)"/><path d="M57.31,88.72c-4-3.83-7.77-7.83-11.35-12-1.57-1.84-2.7-3.78-4.86-1.74-2.74,2.59-3,4.43-.34,6.81,4,3.55,7.9,7.15,11.57,11.06,1,1.06,2.58-.53,1.59-1.59-2.25-2.4-4.56-4.73-7-7q-1.8-1.68-3.67-3.29c-1.4-1.21-2.91-1.79-1.27-3.52.83-.87.16-1,1.12-.63.53.21,1.26,1.5,1.65,1.94q1.66,1.93,3.38,3.8c2.44,2.66,5,5.23,7.56,7.74,1,1,2.63-.58,1.59-1.59Z" transform="translate(-0.23 -0.71)"/><circle class="cls-3" cx="179.83" cy="159.94" r="24.92" transform="translate(-26.45 34.88) rotate(-10.54)"/><path d="M178.08,167.57c.6-.45,5.61,10,5.89,11a24.88,24.88,0,0,1,0,13,1.13,1.13,0,0,0,2.17.6,27.28,27.28,0,0,0-.46-15.55c-1.16-3.45-3.79-9.56-7.41-11.11a1.14,1.14,0,0,0-1.14,0l-.22.17c-1.14.86,0,2.81,1.14,1.94Z" transform="translate(-0.23 -0.71)"/><path d="M172.28,169.13A52.47,52.47,0,0,1,178,182.8c1,4,.69,8.34,1.72,12.28l.79-1.38-.2,0,1.42,1.08v-.11c-.09-1.44-2.34-1.45-2.25,0v.11a1.14,1.14,0,0,0,1.42,1.08l.2,0a1.14,1.14,0,0,0,.79-1.38c-1.18-4.49-.84-9.33-2.17-13.91A55.1,55.1,0,0,0,174.22,168a1.13,1.13,0,0,0-1.94,1.14Z" transform="translate(-0.23 -0.71)"/><path d="M169.48,170a31.23,31.23,0,0,1,3.44,12.28c.18,2.89-.76,5.84-.38,8.64a1.13,1.13,0,0,0,1.08.83h.28A1.15,1.15,0,0,0,175,191l.06-.22a1.13,1.13,0,0,0-2.17-.6c.15-.53,1.72-.88,2-1.47.4-.79.27-2.6.3-3.52a31.88,31.88,0,0,0-.27-5.24,34.47,34.47,0,0,0-3.52-11c-.65-1.29-2.59-.16-1.94,1.14Z" transform="translate(-0.23 -0.71)"/><path d="M170,172.07a41.22,41.22,0,0,1-3.32,12.23c-1.05,2.59-3.12,5.7-3.28,8.5a1.13,1.13,0,0,0,.83,1.08l.26,0a1.15,1.15,0,0,0,1.27-.52l.09-.2c.59-1.31-1.34-2.45-1.94-1.14l-.09.2,1.27-.52c1.8.31,4.36-8.31,4.89-9.74a37.55,37.55,0,0,0,2.28-10c.12-1.44-2.13-1.44-2.25,0Z" transform="translate(-0.23 -0.71)"/><path d="M170.11,167.95a22.14,22.14,0,0,1-4,8.73c-1.59,2.05-3.51,3.73-4.62,6.13-.6,1.31,1.34,2.45,1.94,1.14,1.28-2.77,3.74-4.72,5.43-7.23a24.32,24.32,0,0,0,3.44-8.16c.33-1.41-1.84-2-2.17-.6Z" transform="translate(-0.23 -0.71)"/><path d="M167.93,168.13a34.24,34.24,0,0,1-16,19.42c-1.26.71-.13,2.65,1.14,1.94a36.58,36.58,0,0,0,17.07-20.76c.45-1.38-1.72-2-2.17-.6Z" transform="translate(-0.23 -0.71)"/><path d="M167.77,163.12c-2.17,2.68-5.6,3.68-7.73,6.49a107.84,107.84,0,0,0-5.87,9.42,1.13,1.13,0,0,0,1.94,1.14c1.95-3.2,3.68-6.92,6.14-9.76,2-2.35,5.15-3.27,7.11-5.7.9-1.12-.68-2.72-1.59-1.59Z" transform="translate(-0.23 -0.71)"/><path d="M173.15,165c-9.82-8.45-21.52-.54-26.94,8.77a1.13,1.13,0,0,0,1.94,1.14c4.59-7.89,14.64-15.86,23.41-8.32,1.09.94,2.69-.64,1.59-1.59Z" transform="translate(-0.23 -0.71)"/><path d="M173.5,161.5c-1.81-4-5.86-5.23-9.94-5.67a28.68,28.68,0,0,0-8.72.44c-3.81.77-7.52,3.22-11.53,2.15a1.13,1.13,0,0,0-.6,2.17c4,1.08,7.22-.75,11.08-1.76,5.32-1.39,15-2.22,17.77,3.81.6,1.32,2.54.17,1.94-1.14Z" transform="translate(-0.23 -0.71)"/><path d="M144.67,153.65c2.83,2.24,6,1.32,9.39,1.08,6.23-.43,15.91-.89,17.21,7,.23,1.43,2.4.82,2.17-.6a9.38,9.38,0,0,0-7-7.88,30.41,30.41,0,0,0-8.53-1c-3,0-9,1.79-11.62-.26-1.12-.89-2.73.69-1.59,1.59Z" transform="translate(-0.23 -0.71)"/><path d="M174.4,165.9c.79-9.9,2.23-39-15.72-34a1.13,1.13,0,0,0,.6,2.17c15.64-4.36,13.56,23.23,12.87,31.84-.12,1.44,2.13,1.44,2.25,0Z" transform="translate(-0.23 -0.71)"/><path d="M155,135.81a30.3,30.3,0,0,1,13.34,19.83c.28,1.42,2.45.82,2.17-.6a32.52,32.52,0,0,0-14.37-21.17c-1.22-.79-2.35,1.16-1.14,1.94Z" transform="translate(-0.23 -0.71)"/><path d="M150,144.17c1.2-.91,4.55,2.31,5.25,3.12a36.42,36.42,0,0,0,3.52,4.16c1.1.93,2.7-.65,1.59-1.59-2.09-1.78-3.27-4.31-5.49-6-1.44-1.08-4.25-3-6-1.65-1.14.86,0,2.82,1.14,1.94Z" transform="translate(-0.23 -0.71)"/><path d="M170.88,129.91c5.23,4.14,10.94,8.7,10.9,16,0,6.71-3.55,13.57-7,19.09-.77,1.23,1.17,2.36,1.94,1.14,3.94-6.25,7.87-14.29,7.3-21.92-.53-7.11-6.3-11.72-11.53-15.85-1.12-.89-2.73.69-1.59,1.59Z" transform="translate(-0.23 -0.71)"/><path d="M178.21,150.56c7.57-3.05,16.45-7.45,16.41-16.87a1.13,1.13,0,0,0-2.25,0c0,8.3-8.19,12-14.76,14.7-1.33.53-.75,2.71.6,2.17Z" transform="translate(-0.23 -0.71)"/><path d="M177.15,157.61A63.27,63.27,0,0,0,188.2,152c4.57-3,8.94-8,14.95-7.15,1.42.21,2-2,.6-2.17-4.2-.62-7.5.83-10.93,3.22-5.29,3.7-10.21,7.1-16.27,9.52-1.33.53-.75,2.71.6,2.17Z" transform="translate(-0.23 -0.71)"/><path d="M175.66,160.9c4.41-1.84,9.18-4.43,14-5,5.54-.69,10.9,2.3,15.45,5.2,1.23.78,2.36-1.17,1.14-1.94-4.12-2.62-9.05-5.31-14-5.68-5.81-.42-11.9,3.1-17.12,5.28-1.32.55-.74,2.73.6,2.17Z" transform="translate(-0.23 -0.71)"/><path d="M189.86,157.1l.18-.24-1,.56c.84,0,2.13,1.6,2.74,2.12q1.35,1.16,2.65,2.39c1.73,1.64,3.36,3.36,4.93,5.15,1,1.09,2.54-.51,1.59-1.59a76,76,0,0,0-7.89-7.8c-1.27-1.08-3.66-3.84-5.18-1.72-.85,1.18,1.11,2.3,1.94,1.14Z" transform="translate(-0.23 -0.71)"/><path d="M179,165.59c1.36-3.54,13.07-.82,15.29.59,3.75,2.37,5.77,8.38,7.61,12.13.64,1.3,2.58.16,1.94-1.14-3.26-6.67-5.48-13-13.29-14.67-3.67-.79-12-2-13.72,2.48-.52,1.35,1.65,1.94,2.17.6Z" transform="translate(-0.23 -0.71)"/><path d="M180.23,161.29a62.28,62.28,0,0,0,19.91,24.9c1.16.87,2.28-1.08,1.14-1.94a60.19,60.19,0,0,1-19.1-24.09c-.58-1.32-2.52-.18-1.94,1.14Z" transform="translate(-0.23 -0.71)"/><path d="M180.4,172.21c2,2.87,4.4,5.23,6.61,7.91,1.83,2.22,2.49,5,5.77,5.26,1.44.11,1.44-2.14,0-2.25-1.74-.13-2.43-2.15-3.25-3.37a16.85,16.85,0,0,0-2.13-2.46,47.62,47.62,0,0,1-5.07-6.23c-.83-1.17-2.78-.05-1.94,1.14Z" transform="translate(-0.23 -0.71)"/><path d="M172.88,151.54c-4.8-8.3-16.15-6.34-24.22-6.23a1.13,1.13,0,0,0,0,2.25c7.1-.1,18.06-2.17,22.27,5.11a1.13,1.13,0,0,0,1.94-1.14Z" transform="translate(-0.23 -0.71)"/><path d="M162.77,189.49a92.12,92.12,0,0,0,12.47-13c.89-1.13-.7-2.73-1.59-1.59a92.12,92.12,0,0,1-12.47,13c-1.1.94.5,2.53,1.59,1.59Z" transform="translate(-0.23 -0.71)"/><path d="M185.43,186.17c3.16,6.36,5.51,13,8.46,19.44,1.26,2.74,2.19,2.91,4.71,1.3s3.87-2.37,2.68-5.34-3.38-5.9-4.88-8.84-2.95-6.05-4.3-9.14c-.58-1.32-2.52-.18-1.94,1.14,1.58,3.6,3.25,7.15,5.07,10.64,1,1.94,6.78,9.35,1.72,10-1.46.17-3.38-6.66-4.18-8.56-1.68-4-3.49-7.86-5.4-11.72-.64-1.3-2.59-.16-1.94,1.14Z" transform="translate(-0.23 -0.71)"/><path class="cls-4" d="M42.18,188.92l69.08-59.29s-1.21-2.19.4-3c0,0,1.6-1.06,3.28,2.16l21.51,37.69s1.51,2.33.05,3.24a2.19,2.19,0,0,1-2.8-.25L45.05,193.59s.19,2.5-2.33,1.66l-2.87-4.38S39.06,187.2,42.18,188.92Z" transform="translate(-0.23 -0.71)"/><path class="cls-4" d="M67.07,187.94s1.17,4,2.87,4.82c0,0,2.76,1.87,11.85-1,0,0,8.36-2.34,10-4.87a12.84,12.84,0,0,0,.64-6.2" transform="translate(-0.23 -0.71)"/><path class="cls-4" d="M68.9,187.25s.64,3.16,2,3.73c0,0,.46,1.1,6.25-1.06l11.08-3.27s2.06-.47,2.33-1.58a9.87,9.87,0,0,0,0-3.68" transform="translate(-0.23 -0.71)"/><path class="cls-4" d="M138.29,72.94s3.18-1.88,5.54-1.9c0,0,7.14-1.05,9,8.79,0,0,2.46,9.29-3.48,11.61a13.38,13.38,0,0,1-7.08,1l-.35.29s.73,5.75-2.94,8.8c0,0-3.7,3.48-11,.48,0,0-9.22-3.15-8.14-9.24,0,0,.71-4.37,3.11-6.58l-.12-.55a10.39,10.39,0,0,1-5.11-4.92s-3.27-5.84,4.5-11.47c0,0,7.21-6.29,12-1.64,0,0,2.82,2.89,3.48,5.09Z" transform="translate(-0.23 -0.71)"/><path class="cls-4" d="M138.48,73.21A39.41,39.41,0,0,1,142.32,92" transform="translate(-0.23 -0.71)"/><path class="cls-4" d="M123.25,86.41s6.26,4.22,18.33,6.17" transform="translate(-0.23 -0.71)"/><path class="cls-4" d="M123.2,85.35s4.24-7.36,14.28-12.3" transform="translate(-0.23 -0.71)"/><polygon points="122.59 72.26 124.59 71.88 125.38 69.89 124.28 69.42 126.6 68.51 127.7 70.67 126.62 70.28 125.92 72.23 127.4 74.03 128.24 73.34 128.07 75.83 125.51 75.67 126.4 74.85 124.93 73.13 122.74 73.53 122.92 74.69 120.72 73.28 122.2 71.07 122.59 72.26"/><polygon points="143.39 76.58 144.86 75.9 145 74.39 146.09 75.49 147.72 75.26 147.07 76.51 147.7 77.96 146.18 77.87 145.05 79.06 144.77 77.42 143.39 76.58"/><polygon points="148.77 81.37 149.4 80.65 149.12 79.8 149.97 80.14 150.79 79.63 150.74 80.45 151.43 81.08 150.59 81.4 150.26 82.31 149.72 81.49 148.77 81.37"/><polygon points="144.46 85.36 145.36 84.48 145.06 83.33 146.16 83.86 147.29 83.26 147.14 84.34 147.99 85.25 146.84 85.58 146.33 86.75 145.69 85.62 144.46 85.36"/><polygon points="136.64 95.33 136.47 96.93 137.69 97.81 136.19 98.19 135.55 99.69 134.82 98.5 133.26 98.3 134.11 97.05 133.68 95.47 135.22 96.08 136.64 95.33"/><polygon points="128.43 95.7 128.77 96.87 129.88 97.14 128.93 97.83 128.92 99.07 128.06 98.44 126.91 98.75 127.15 97.63 126.39 96.65 127.64 96.63 128.43 95.7"/><polygon points="126.88 90.56 127.15 91.76 128.25 92.1 127.26 92.73 127.17 93.98 126.35 93.3 125.17 93.54 125.48 92.42 124.78 91.4 126.04 91.45 126.88 90.56"/><circle class="cls-5" cx="179.54" cy="98.41" r="12.57"/><circle class="cls-6" cx="98.13" cy="57.7" r="13.29" transform="translate(-14.93 72.12) rotate(-38.09)"/><circle class="cls-7" cx="121.33" cy="110.91" r="3.86"/><circle class="cls-2" cx="153.46" cy="101.54" r="3.63"/><circle class="cls-8" cx="144.9" cy="118.99" r="7.46"/><circle class="cls-9" cx="207.46" cy="111.91" r="7.46"/><circle class="cls-10" cx="175.46" cy="67.91" r="7.46"/><circle class="cls-11" cx="69.46" cy="144.91" r="3.63"/></svg>